<svg xmlns="http://www.w3.org/2000/svg" width="80" height="80" viewBox="0 0 80 80"><path fill="#FFF" d="M40.05 10.187c-16.394-.36-29.587 13.608-29.94 29.022-.395 17.194 13.893 30.395 29.202 30.666 17.262.305 30.668-13.742 30.676-29.836.006-16.35-13.482-30.132-29.938-29.853zM62.592 46.36c-.9 3.05-2.313 5.82-4.328 8.284-2.56 3.135-5.686 5.494-9.438 7.026-3.136 1.28-6.407 1.82-9.77 1.65-6.66-.337-12.233-2.964-16.673-7.997-2.347-2.662-3.996-5.697-4.882-9.087-.51-1.96-.593-4.036-.835-6.063-.078-.65.253-1.215.883-1.323.392-.068.965.123 1.258.404 1.8 1.728 3.577 3.486 5.28 5.312.268.29.312 1.06.122 1.44-.3.602-.965.938-1.612.39-.868-.738-1.67-1.555-2.5-2.338l-.668-.625c.88 4.82 2.985 8.71 6.383 11.855 3.44 3.183 7.515 4.975 12.208 5.465 3.69.386 7.18-.23 10.53-1.705 3.915-1.72 7.047-4.418 9.22-8.088 1.008-1.705 1.65-3.63 2.415-5.473.306-.738.923-1.144 1.612-.913.847.285 1.063.883.797 1.785zm.033-5.284c-.438.066-1.067-.033-1.367-.316-1.812-1.716-3.564-3.498-5.318-5.277-.572-.58-.53-1.212.05-1.772.558-.537 1.165-.528 1.71.006.897.88 1.764 1.792 2.643 2.69l.4-.186c-.574-1.653-1.002-3.375-1.745-4.948-2.828-5.982-7.49-9.93-13.896-11.52-6.717-1.668-12.895-.25-18.312 4.122-3.376 2.726-5.705 6.167-6.806 10.4-.242.93-.99 1.408-1.73 1.168-.834-.272-1.02-.848-.712-1.93 1.182-4.156 3.368-7.707 6.524-10.63 2.578-2.387 5.543-4.13 8.94-5.166 2.52-.77 5.075-1.11 7.688-1.055 5.17.11 9.788 1.8 13.84 5.002 3.67 2.898 6.267 6.563 7.722 11.02.753 2.307 1.196 4.664 1.118 7.106-.02.595-.105 1.19-.75 1.288z"/></svg>