<svg xmlns="http://www.w3.org/2000/svg" xmlns:xlink="http://www.w3.org/1999/xlink" width="96" height="73" viewBox="0 0 96 73"><defs><path id="a" d="M218.164-187.888h27.796v19.538h-27.796z"/></defs><clipPath id="b"><use xlink:href="#a" overflow="visible"/></clipPath><g clip-path="url(#b)"><defs><path id="c" d="M-365-370h800v800h-800z"/></defs><clipPath id="d"><use xlink:href="#c" overflow="visible"/></clipPath><g clip-path="url(#d)"><defs><path id="e" d="M217-189h29v21h-29z"/></defs><clipPath id="f"><use xlink:href="#e" overflow="visible"/></clipPath><g clip-path="url(#f)"><image overflow="visible" width="29" height="21" xlink:href="BE765CE12EE512BD.png" transform="translate(217 -189)"/></g></g></g><defs><path id="g" d="M226.096-185.515h14.45v14.41h-14.45z"/></defs><clipPath id="h"><use xlink:href="#g" overflow="visible"/></clipPath><g clip-path="url(#h)"><defs><path id="i" d="M-365-370h800v800h-800z"/></defs><clipPath id="j"><use xlink:href="#i" overflow="visible"/></clipPath><g clip-path="url(#j)"><defs><path id="k" d="M226-186h15v15h-15z"/></defs><clipPath id="l"><use xlink:href="#k" overflow="visible"/></clipPath><g clip-path="url(#l)"><image overflow="visible" width="15" height="15" xlink:href="BE765CE12EE512BF.png" transform="translate(226 -186)"/></g></g></g><path fill="#FFF" d="M27.223 55.014c.332 0 .604.06.892.166.242 0 .62-.678.574-1.1-.273-.273-.817-.408-1.392-.408h-.015c-2.54 0-4.096 2.11-4.096 4.465 0 1.795.937 2.564 2.297 2.564 1.18 0 1.995-.406 2.48-.89.27-.27.36-.558.36-.86 0-.27-.135-.512-.24-.587-.424.377-1.18.875-1.92.875-.695 0-.997-.528-.997-1.403 0-1.403.68-2.82 2.056-2.82zm17.845-.03c.302 0 .53.06.756.135.53.195.86-.513.876-.936-.27-.286-.86-.513-1.48-.513h-.016c-1.57 0-2.644 1.042-2.644 2.294 0 .604.24 1.13 1.012 1.704.922.648 1.148.875 1.148 1.132 0 .3-.317.527-.816.527-.528 0-1.18-.21-1.57-.407-.303-.15-.515.74-.243 1.192.212.302.862.588 1.603.588 1.813 0 2.856-1.19 2.856-2.293 0-.664-.288-1.13-1.013-1.66-1.013-.708-1.224-.92-1.224-1.206 0-.374.347-.556.755-.556zm-14.325-.076c-1.134 1.132-1.436 2.686-1.436 3.576v.015c0 1.478.575 2.2 1.45 2.2 1.225 0 2.39-.83 2.978-1.81-.015.12-.045.408-.06.604-.046.59-.016 1.207.12 1.207.257 0 1.194-.06 1.693-.27-.03-.316 0-1.177.076-1.795.166-1.448.53-3.953.68-4.615-.604-.12-1.572-.348-2.282-.348-1.073 0-2.252.24-3.22 1.236zm3.46.483c-.376 2.476-1.722 3.772-2.462 3.772h-.014c-.302 0-.484-.332-.484-.965 0-.74.227-1.66.756-2.398.514-.695 1.088-.86 1.647-.86.227 0 .453.045.62.105-.03.15-.046.195-.06.346zm5.652-.406c.302 0 .53.06.756.135.53.195.862-.513.877-.936-.272-.286-.86-.513-1.48-.513h-.016c-1.57 0-2.644 1.042-2.644 2.294 0 .604.242 1.13 1.013 1.704.92.648 1.147.875 1.147 1.132 0 .3-.317.527-.816.527-.528 0-1.178-.21-1.57-.407-.303-.15-.514.74-.242 1.192.21.302.862.588 1.602.588 1.813 0 2.856-1.19 2.856-2.293 0-.664-.287-1.13-1.013-1.66-1.013-.708-1.224-.92-1.224-1.206 0-.374.347-.556.755-.556zm9.126-.076c-1.132 1.132-1.435 2.686-1.435 3.576v.015c0 1.478.575 2.2 1.452 2.2 1.224 0 2.388-.83 2.978-1.81-.016.12-.046.408-.06.604-.047.59-.017 1.207.12 1.207.256 0 1.193-.06 1.69-.27-.028-.316 0-1.177.077-1.795.166-1.448.53-3.953.68-4.615-.604-.12-1.57-.348-2.28-.348-1.075 0-2.253.24-3.22 1.236zm3.462.483c-.378 2.476-1.723 3.772-2.464 3.772h-.015c-.302 0-.483-.332-.483-.965 0-.74.227-1.66.756-2.398.514-.695 1.088-.86 1.646-.86.228 0 .454.045.62.105-.03.15-.045.195-.06.346zm8.972-32.694c-.156.54-.34 1.07-.586 1.572-.082-.02-.166-.03-.253-.03-.616 0-1.116.498-1.116 1.113 0 .268.17.81.326 1.002-.15.19-.312.355-.48.51l-2.154.772-.42.15.302-.418L58.89 24.8l-2.452 1.626-.53.35.204-.68.84-2.813-1.626 2.287-.42.592-.01-.785-.038-2.854-1.1 2.646-.246.594-.195-.57-.928-2.71.044 2.896.016.97-.445-.797-1.494-2.667.868 3.04.182.638-.516-.375-2.222-1.614c-.038.023-.09.032-.133.05l1.77 2.222.418.524-.595-.218-3.312-1.216L49.9 28.1l.154.115-2.16.066c-.54-.273-1.06-.608-1.605-1.095.275-.736.84-1.913 1.3-2.53.137.05.285.08.44.08.264 0 .478-.038.66-.11l-.277-.346.41.296c.204-.125.324-.334.324-.683 0-.168-.172-.588-.234-.735.308-.248.644-.474.99-.688.38-.233.778-.44 1.192-.63-.74.062-1.464.13-2.155.216-.153.103-.31.2-.458.312-.14-.055-.293-.087-.453-.087-.422 0-.776.226-.998.55-.135.196-.233.422-.233.68 0 .15.108.588.158.722-.447.565-.91.896-1.215 1.57-.555-.757-.99-1.6-1.312-2.488-.05-.145-.103-.29-.15-.438l-.333.08c.023.15.055.3.085.45.256 1.25.76 2.44 1.43 3.42-.093.28-.233.42-.3.713-.23 1.03-.197 2.457-.074 3.448-.54.262-.87.575-.987 1.054-.21.865.725 1.613 1.618 1.613.083 0 .166-.008.246-.02.427.817.882 2.12 1.54 2.773 0 .007-.002.014-.004.02 2.376 1.092.522-.303.21-.827-.415-.542-.77-1.125-1.06-1.737.32-.295.52-.716.52-1.184 0-.05-.02-.094-.025-.142l-.422.153.404-.257c-.107-.672-.606-1.214-1.273-1.338-.1-.885-.063-1.792.14-2.698.007-.034.017-.067.025-.102.55.604 1.185 1.13 1.882 1.564l-1.804.388 2.958.214 1.036.075-.312.2-2.652 1.695c.005.035.015.07.02.105l3.045-1.102-2.407 3.042.833-.67 2.206-1.777-1.095 4.082 2.35-3.322-.33 3.924 1.333-3.557 1.113 3.67c.01 0 .018-.002.025-.004l.272-3.678 1.63 3.097c.01-.003.017-.007.024-.01l-.965-3.548 3.084 2.384-1.99-3.04 3.382 1.316-2.586-2.537 3.47.272-3.417-1.31.475-.113 2.95-.703-2.178-.11c.78-.72 1.533-1.635 2.024-2.4.06.01.12.018.183.018.616 0 1.217-.492.917-1.03-.097-.173-.22-.352-.446-.556.2-.584.507-1.41.654-2.134-.098-.013-.19-.03-.288-.046zm14.843 14.29c.877.63 1.58 1.093 1.58 1.093s-.7-.535-1.58-1.093zm1.51 17.922c-1.132 1.132-1.435 2.686-1.435 3.576v.015c0 1.478.574 2.2 1.45 2.2 1.226 0 2.39-.83 2.98-1.81-.017.12-.047.408-.063.604-.046.59-.015 1.207.12 1.207.258 0 1.194-.06 1.693-.27-.03-.316 0-1.177.075-1.795.167-1.448.53-3.953.68-4.615-.604-.12-1.57-.348-2.282-.348-1.072 0-2.25.24-3.218 1.236zm3.462.483c-.378 2.476-1.724 3.772-2.464 3.772h-.016c-.302 0-.483-.332-.483-.965 0-.74.228-1.66.756-2.398.514-.695 1.088-.86 1.647-.86.227 0 .453.045.62.105-.03.15-.046.195-.06.346zm-.54-30.376c2.745-1.6 4.848-5.514 4.848-5.514s-5.347 5.514-9.054 4.696c3.352-2.633 4.99-7.187 4.99-7.187s-4.256 6.554-6.915 6.83c3.064-2.704 4.348-6.547 4.348-6.547s-3.492 5.124-6.202 5.48c3.636-3.274 3.778-5.338 3.778-5.338s-5.03 6.49-7.057 5.48c2.423-2.634 4.062-5.978 4.062-5.978s-4.206 5.693-5.347 4.767C67.358 21.562 69.426 19 69.426 19s-2.566 2.277-3.28 1.708c1.284-.783 3.493-4.625 3.493-4.625s-4.278 4.91-5.347 4.34l2.064-4.18s-2.064 4.18-4.845 3.468c1.282-1.636 1.776-3.136 1.776-3.136s-2.133 3.422-4.77 2.497c-.62-.216.77-1.79.77-1.79s-1.77 1.72-2.98 1.506c-1.213-.213.07-2.42.07-2.42s-2.138 3.345-2.565 3.203c-.428-.144.214-2.35.214-2.35s-1.568 2.563-2.424 2.42 0-2.633 0-2.633-.927 2.775-1.64 2.562c-.714-.214-.855-1.85-.855-1.85s-.192 2.22-1.21 2.418c-7.7 1.495-16.184 4.768-26.805 15.37 6.61-3.556 10.6-8.22 17.907-11.198-.22.875-.337 1.77-.337 2.673 0 6.88 6.46 12.48 14.398 12.48 7.94 0 14.397-5.6 14.397-12.48 0-1.35-.256-2.687-.745-3.958 5.763 1.802 8.948 4.454 10.34 4.513 6.702.285 10.908-6.19 10.908-6.19s-4.204 4.84-7.27 3.666zM53.062 38.476c-7.388 0-13.398-5.155-13.398-11.49 0-1.063.17-2.11.504-3.123 3.596-1.312 7.986-2.223 13.79-2.442 4.59-.173 8.38.395 11.5 1.242.647 1.37 1 2.838 1 4.323 0 6.335-6.01 11.49-13.396 11.49zM76.44 53.943c-.138-.15-.44-.27-.636-.27-.62 0-1.572.39-2.373 2.17h-.045c.212-1.34.106-2.17-.03-2.17-.256 0-1.39.255-1.678.39.03.273.016.967-.03 1.344-.15 1.48-.544 3.998-.77 5.234.483-.014 1.496-.135 1.753-.286.166-.074.256-.195.302-.482.635-3.44 1.647-4.238 2.16-4.238.26 0 .484.09.666.18.348-.377.742-1.373.68-1.87zm-6.016-3.68c-.407 0-1.314.136-1.736.21-.016.635-.333 2.776-.47 3.47-.257-.15-.664-.27-1.118-.27-2.568 0-4.095 2.247-4.095 4.69 0 1.48.604 2.34 1.57 2.34h.017c1.148 0 2.19-.605 2.946-1.84 0 .044-.03.33-.045.526-.03.618.03 1.31.136 1.31.256 0 1.238-.044 1.722-.255-.015-.453 0-1.252.09-2.066.123-.968.772-5.312 1.135-7.575.06-.377.015-.542-.153-.542zm-2.463 5.46c-.376 2.188-1.722 3.425-2.386 3.425h-.016c-.332 0-.574-.362-.574-1.07 0-1.313.68-3.14 2.207-3.14.408 0 .665.12.862.303-.03.137-.075.363-.09.484zM56.343 41.84c5.078 3.36 4.46 9.403 4.46 9.403s1.335-2.877-2.41-9.95c2.03-.107 5.083 5.254 5.083 5.254s-3.316-5.87-1.07-5.977c4.463-.213 4.92 7.79 4.92 7.79s1.336-1.12-2.246-8.965c2.28-1.458 7.805 7.258 7.805 7.258s-5.097-8.503-4.277-9.072 3.813 2.705 3.813 2.705-2.28-3.13-1.674-3.45c.606-.322 6.666 6.226 6.666 6.226s-5.347-6.403-4.42-7.187c.535-.452 2.065.353 3.266 1.114-1.694-1.216-4.044-3.064-3.267-3.467 1.642-.85 6.31 2.032 6.31 2.032s-2.814-2.312-2.352-2.88c.463-.57 5.988 3.627 5.988 3.627s-4.883-3.843-5.133-4.804 3.85.32 3.85.32-4.526-2.1-4.598-2.704c-.07-.605 2.994.676 2.994.676s-4.207-3.45-5.24-.64c-3.315 6.297-10.267 9.82-18.393 10.994-8.126 1.174-14.115-.532-19.034-1.916-6.47-1.82-11.602 1.418-17.216-1.393 1.298 1.026 2.78 2.027 7.058 2.04 1.45.005 6.095-.226 6.95.522s-2.887 4.27-2.887 4.27 6.332-5.345 6.95-3.522c.385 1.134-1.817 4.162-1.817 4.162s2.21-2.99 3.85-3.628c1.128-.438 2.078-.386 2.888.747.535.746-2.566 4.376-2.566 4.376s4.17-4.056 4.92-3.843c.748.213 0 3.843 0 3.843s1.534-3.677 2.352-3.95c1.123-.373-2.567 8.54-2.567 8.54s4.505-8.246 5.347-8.433c1.443-.32 2.406 5.764 2.406 5.764s-.703-5.314.053-5.655c4.788-2.163 2.03 9.18 2.03 9.18s3.133-7.698 1.21-9.405zm4.427 11.832c-1.27 0-2.177.845-2.873 1.96h-.045c.016-.09.03-.255.045-.36.152-1.133.122-1.6-.045-1.6-.15 0-1.496.286-1.753.377.045.315-.03 1.13-.228 2.397-.212 1.39-.5 3.273-.68 4.193.98-.015 1.466-.136 1.692-.27.166-.106.287-.288.332-.59.666-3.65 1.995-4.54 2.555-4.54.424 0 .44.528.363.965-.12.755-.378 2.067-.5 2.79-.135.876-.12 1.706-.014 1.706.256 0 1.404-.074 1.798-.27-.016-.453.06-1.115.165-1.855.122-.875.303-1.825.41-2.49.196-1.418-.15-2.413-1.224-2.413z"/></svg>