<svg xmlns="http://www.w3.org/2000/svg" width="80" height="80" viewBox="0 0 80 80"><path fill="#FFF" d="M75.438 39.65L65.295 29.504V14.53H50.738L40.77 4.56 40.21 4 29.68 14.53H14.53v15.15L4 40.21l10.53 10.53v14.555h14.975L39.65 75.44l.56.56 10.706-10.705h14.38v-14.38L75.44 40.772l.56-.56-.562-.56zm-11.73-23.534v11.802l-3.983-3.983-.562-.562-.562.562-12.815 12.817h-2.713v-1.94l13.412-13.415.562-.562-.562-.562-4.157-4.16h11.38v.003zm0 14.047v6.59h-15.68l11.135-11.135 4.544 4.545zM42.887 40.77l.712.714h-2.115V43.6l-1.273-1.273-1.87 1.87v-2.712h-1.94l1.273-1.273-1.87-1.87h2.537v-2.538l1.31 1.31.56.562.563-.56.713-.714v1.94H44.2l-1.308 1.31-.562.562.56.557zm11.915-19.934l-11.73 11.73v-16.45h7.01l4.72 4.72zM40.21 6.246l8.284 8.283h-7.01v19.624l-1.274 1.274-1.87-1.87v-19.03h-6.414l8.284-8.283zm-9.872 9.87h6.414V31.97L25.62 20.836l4.718-4.72zm-14.22 0h11.976l-4.72 4.72.56.563 12.818 12.816v2.537h-2.538l-13.378-13.38-4.72 4.72V16.118zm0 14.222l4.72-4.72L31.97 36.752H16.117v-6.414zm-1.59 18.157L6.246 40.21l8.285-8.285v6.414h19.028l1.87 1.87-1.273 1.272H14.53v7.013zm1.588-5.423h16.45l-11.73 11.73-4.72-4.722v-7.008zm0 20.635v-11.38l4.16 4.16.562.56.56-.56L34.814 43.07h1.94v2.713L23.935 58.602l-.56.562.56.562 3.983 3.98h-11.8zm9.503-4.544L36.752 48.03v15.677h-6.59l-4.544-4.544zm14.59 14.592l-8.46-8.46h6.59V46.44l1.87-1.868 1.274 1.272v19.45h7.186l-8.46 8.46zm10.048-10.048h-7.186V47.434l11.73 11.73-4.544 4.543zm13.45 0H52.502l4.544-4.543-.562-.562-13.413-13.414v-2.115h2.115L58.6 56.487l.562.562 4.545-4.546v11.203zm0-13.45l-4.545 4.546-11.73-11.73h16.274v7.185zm1.587-1.587v-7.186h-19.45l-1.272-1.273 1.87-1.87h18.854v-6.59l8.46 8.46-8.462 8.46z"/></svg>