<svg xmlns="http://www.w3.org/2000/svg" width="80" height="80" viewBox="0 0 80 80"><path fill="#FFF" d="M13.982 25.66v-5.366h-4.24v9.797l6.022-2.02-1.782-2.41zM26.2 56.77L23.26 44.596l-2.163-.59-5.866-8.834h-3.17v2.575l-1.38-1.083v3.768L7.435 39.05v-6.524l.098-.104h-2.34v26.594h22.92l-.39-1.616-1.525-.63zm44.075-24.348V20.294H43.91l2.107.333 1.05 2.442h-4.35v1.84l-2.185-1.84h-5.536l-5.808 5.904 3.855 5.075 12.546-4.76 11.515 9.383 6.358 1.555.98 2.504-11.304 1.016-.58-1.578-1.524.598-6.28-5.307-11.545 7.5 3.4 14.058h38.123V32.422h-4.458zm-39.63-12.128h-8.522l.017 5.448 8.504-5.448z"/></svg>