<svg xmlns="http://www.w3.org/2000/svg" width="80" height="80" viewBox="0 0 80 80"><path fill="#FFF" d="M26.16 55.23c-.394-.572-1.01-1.27-2.065-2.145-1.466-1.223-.946-3.32-.08-4.637 1.136-2.224 7.032-5.05 6.685-8.608-.126-1.287-.315-2.97-1.514-4.13-.047.478.032.938.032.938s-.49-.635-.725-1.493c-.236-.333-.426-.43-.694-.874-.19.51-.158 1.097-.158 1.097s-.395-.953-.458-1.763c-.236.365-.3 1.048-.3 1.048s-.52-1.51-.393-2.32c-.235-.698-.945-2.095-.74-5.27 1.292.92 4.146.698 5.265-.954.363-.556.615-2.05-.19-4.987-.52-1.89-1.796-4.7-2.3-5.78l-.064.05c.27.857.805 2.668 1.01 3.542.63 2.652.804 3.573.505 4.796-.252 1.064-.852 1.763-2.38 2.54-1.53.78-3.562-1.11-3.69-1.222-1.48-1.19-2.63-3.145-2.757-4.097-.126-1.033.6-1.668.96-2.51-.52.16-1.103.413-1.103.413s.694-.73 1.56-1.366c.364-.238.568-.397.947-.7-.536-.015-.977 0-.977 0s.898-.49 1.844-.856c-.695-.03-1.34 0-1.34 0s2.017-.904 3.61-1.587c1.103-.46 2.174-.318 2.773.556.788 1.158 1.624 1.778 3.373 2.16 1.088-.477 1.403-.73 2.76-1.113 1.197-1.334 2.127-1.493 2.127-1.493s-.473.43-.583 1.112c.678-.54 1.418-.984 1.418-.984s-.284.365-.552.92l.063.096c.787-.477 1.717-.857 1.717-.857s-.268.334-.583.78c.6 0 1.813.03 2.27.08 2.774.062 3.342-2.987 4.413-3.368 1.324-.477 1.924-.778 4.193 1.477 1.94 1.937 3.47 5.382 2.712 6.16-.63.636-1.876-.253-3.263-2-.727-.92-1.278-2.017-1.546-3.398-.22-1.175-1.072-1.842-1.072-1.842s.488 1.112.488 2.096c0 .54.063 2.54.914 3.653-.078.158-.125.81-.22.936-.993-1.207-3.106-2.064-3.452-2.32 1.166.97 3.86 3.193 4.902 5.337.977 2.017.394 3.875.898 4.352.142.143 2.096 2.604 2.475 3.843.662 2.16.03 4.43-.82 5.844l-2.41.38c-.348-.094-.584-.142-.9-.332.174-.317.52-1.08.52-1.254l-.142-.238c-.74 1.064-2.002 2.112-3.042 2.715-1.372.778-2.933.667-3.957.334-2.9-.905-5.66-2.89-6.32-3.415 0 0-.017.413.11.508.725.84 2.41 2.35 4.035 3.398l-3.45.378 1.64 12.864c-.726.11-.836.158-1.624.27-.693-2.494-2.033-4.13-3.5-5.082-1.292-.842-3.074-1.032-4.776-.683l-.11.127c1.183-.127 2.585.048 4.02.97 1.403.904 2.538 3.223 2.963 4.62.536 1.794.898 3.7-.536 5.733-1.024 1.445-4.02 2.238-6.43.508.645 1.05 1.512 1.906 2.694 2.064 1.75.238 3.406-.063 4.54-1.254.978-1.018 1.483-3.13 1.356-5.353l1.545-.222.553 4.002 25.474-3.098-2.128-20.47-1.294.254-2.49-25.997L15.96 13.08l5.234 42.88 4.966-.732zm34.727-19.55l1.34 16.39-22.495 4.098-1.94-16.405 3.2-.444c.522.237.884.316 1.498.49.962.255 2.098.493 3.752-.35.395-.19 1.198-.936 1.514-1.365l13.13-2.414zm-20.21 17.136l.19 1.778 19.973-3.716-1.167-12.61-3.247 6.94-4.304-2.875-3.594 6.05-4.178-1.237-3.672 5.67zm5.99-29l.048.096.063.16c.3.62.63 1.206 1.183 1.508.143-.032.3-.047.442-.047.52-.016.852.063 1.056.174.017-.11.017-.254.017-.492-.048-.794.156-2.144-1.356-2.843-.568-.27-1.373-.19-1.625.143.048 0 .096.016.127.032.41.16.125.302.062.46-.08.16-.19.27-.016.81zm-.282 8.83c1.104.827 2.064 1.383 3.09 1.256.63-.08 1.182-1.08 1.56-1.985.253-.62.253-1.302-.126-1.524-.206-.11-1.12-.063-1.767.016-1.23.142-2.57.586-2.87.81-.535.41-.283 1.14.112 1.427zm-9.774-8.32c-1.197.826-1.228 2.588-.094 3.59.11.094.205.174.3.22.33-.158.71-.316 1.15-.46.74-.237 1.356-.364 1.86-.428.236-.27.52-.747.457-1.62-.095-1.175-.977-1-.315-1.636.347-.333-1.734-.778-3.357.334zM12.24 62.2H8.11v9.593h4.13c2.995 0 4.477-1.683 4.477-5.05 0-3.033-1.497-4.542-4.477-4.542zm-.267 8.053H9.876v-6.51h2.097c1.97 0 2.963 1 2.963 3 0 2.335-.978 3.51-2.963 3.51zm8.843-8.052l-4.05 9.593h1.81l3.17-7.766 1.56 3.605H21.32l-.615 1.54h3.058l1.198 2.62h1.91L22.722 62.2h-1.907zm12.264 0h-7.25v1.542h2.742v8.05h1.766v-8.05h2.743v-1.54zm3.152 0l-4.05 9.593h1.812l3.153-7.766 1.56 3.605h-1.985l-.6 1.54h3.06l1.197 2.62h1.906L38.14 62.2h-1.908zm11.35 0h-4.13v9.593h4.13c2.995 0 4.477-1.683 4.477-5.05 0-3.033-1.498-4.542-4.478-4.542zm-.268 8.053h-2.097v-6.51h2.097c1.97 0 2.963 1 2.963 3 0 2.335-.976 3.51-2.963 3.51zm10.735-8.115c-3.2 0-4.792 1.62-4.792 4.876.14 3.24 1.75 4.844 4.79 4.86 3.138 0 4.715-1.62 4.715-4.86 0-3.256-1.56-4.876-4.714-4.876zm0 8.178c-1.972 0-2.948-1.11-2.964-3.35 0-2.21.992-3.305 2.963-3.305 1.923 0 2.884 1.113 2.884 3.305 0 2.24-.96 3.35-2.885 3.35zm11.208-6.654c.96 0 1.844.176 2.664.54V62.6c-.82-.318-1.75-.478-2.807-.478-3.42 0-5.14 1.572-5.14 4.732 0 3.335 1.688 5.003 5.062 5.003 1.166 0 2.127-.175 2.885-.51V66.33h-2.854l-.6 1.572h1.688v2.256c-.41.11-.773.158-1.088.158-2.16 0-3.248-1.143-3.248-3.462 0-2.127 1.152-3.192 3.438-3.192z"/></svg>