<svg xmlns="http://www.w3.org/2000/svg" width="80" height="80" viewBox="0 0 80 80"><path fill="#FFF" d="M54.436 19.458c-3.385-2.13-6.578-2.97-9.772-5.1-1.98-1.354-4.727-4.582-7.026-7.357-.447 4.455-1.79 6.262-3.322 7.553-3.258 2.582-5.302 3.356-8.112 4.906C23.84 20.683 11 28.43 11 45.082S24.86 74 40.255 74 69 62.704 69 45.6c0-17.106-12.52-24.85-14.564-26.142zm.37 48.468c-.32.322-3.26 2.388-6.708 2.71-3.45.323-8.112.517-10.922-2.065-.447-.45-.32-1.096 0-1.354s.575-.45.958-.45.32 0 .51.128c1.278 1.033 3.194 1.872 7.282 1.872 4.09 0 6.963-1.162 8.24-2.13.575-.452.83-.064.895.193s.192.644-.255 1.096zm-11.18-5.874c.704-.646 1.853-1.68 2.94-2.13 1.085-.452 1.66-.388 2.683-.388s2.106.064 2.874.58c.766.518 1.213 1.68 1.47 2.325.255.644 0 1.03-.513 1.29-.446.258-.51.13-.956-.71-.447-.84-.83-1.68-3.066-1.68-2.236 0-2.938.775-4.024 1.68-1.086.903-1.47 1.226-1.853.71-.383-.517-.256-1.033.447-1.678zm16.93.516c-2.302-.193-6.9-7.424-9.84-7.553-3.704-.13-11.752 7.81-18.076 7.81-3.833 0-4.982-.58-6.26-1.42-1.916-1.354-2.875-3.42-2.81-6.26.063-5.035 4.726-9.747 10.603-9.812 7.474-.064 12.647 7.487 16.417 7.423 3.193-.064 9.325-6.39 12.328-6.39 3.193 0 4.088 3.355 4.088 5.357 0 2-.64 5.615-2.172 7.874s-2.49 3.1-4.28 2.97z"/></svg>