<svg xmlns="http://www.w3.org/2000/svg" width="80" height="80" viewBox="0 0 80 80"><path fill="#FFF" d="M27.23 30.436l-11.39-2.653c-4.644 1.493-7.85 5.97-7.85 10.835 0 4.755 2.93 9.01 7.352 10.67l14.54-13.158-2.653-5.694zm-.167-2.71l2.322-11.774c-1.438-1.105-3.15-1.66-4.976-1.66-4.48 0-8.183 3.65-8.183 8.183 0 .94.166 1.935.498 2.82l10.338 2.432zm20.51 14.65L62.834 29c.22-1.107.33-2.212.33-3.374 0-9.398-7.628-17.027-17.026-17.027-5.64 0-10.89 2.763-14.042 7.407l-2.543 13.158 2.93 6.303 15.092 6.91zM31.71 38.01L16.836 51.443c-.22 1.106-.332 2.268-.332 3.428 0 9.4 7.685 17.085 17.083 17.085 5.694 0 10.946-2.82 14.153-7.464l2.487-13.156-3.372-6.414-15.147-6.91zM52.66 52.715l-2.267 11.72c1.438 1.106 3.15 1.715 4.92 1.715 4.48 0 8.183-3.648 8.183-8.183 0-.994-.166-1.934-.498-2.818L52.66 52.714zm11.72-21.56L49.454 44.2l3.04 5.806 11.39 2.654c4.645-1.548 7.85-5.97 7.85-10.836 0-4.754-2.93-8.956-7.352-10.67z"/></svg>