<svg xmlns="http://www.w3.org/2000/svg" width="80" height="80" viewBox="0 0 80 80"><path fill="#FFF" d="M39.974 12.02h-.55c-15.566.293-28.1 12.895-28.112 28.392v21.983c.01 3.56 2.926 6.44 6.52 6.44H39.99c15.822-.008 28.645-12.723 28.645-28.408 0-15.69-12.832-28.406-28.66-28.406zm-17.53 51.013c-4.084-2.125-6.874-6.36-6.874-11.252 0-6.57 5.034-11.967 11.487-12.63-.792.72-1.29 1.758-1.29 2.904 0 1.236.578 2.335 1.478 3.06-3.192.556-5.64 3.35-5.64 6.667 0 2.403 1.28 4.51 3.205 5.692-1.687.468-2.883 1.946-2.883 3.707 0 .68.188 1.307.518 1.853zM46.63 44.018h-6.413v7.756c0 6.48-5.277 11.72-11.817 11.72-1 0-1.63-.098-2.577-.344-1.083-.28-1.885-1.17-1.886-1.97 0-1.176.653-1.854 2.02-1.854.734 0 1.09.164 2.443.164 4.278 0 7.77-3.463 7.778-7.7v-5.834c0-1.062-.894-1.938-1.964-1.938H29.76c-1.123 0-1.988-.85-1.988-1.963 0-1.12.88-1.962 2.027-1.962h6.38V32.36c0-6.382 5.11-11.56 11.51-11.72h.307c.998 0 1.63.098 2.576.343 1.084.282 1.886 1.16 1.886 1.962 0 1.175-.654 1.86-2.02 1.86-.736 0-1.09-.162-2.443-.162-4.28 0-7.772 3.46-7.78 7.7v5.794c0 1.06.895 1.955 1.965 1.955h4.447c1.118 0 1.993.85 1.994 1.962 0 1.112-.876 1.964-1.995 1.964zm2.724.925c.788-.722 1.28-1.746 1.28-2.89 0-1.234-.582-2.34-1.484-3.067 3.193-.548 5.648-3.32 5.648-6.634 0-2.403-1.287-4.515-3.213-5.7 1.69-.465 2.885-1.942 2.884-3.707-.002-.682-.197-1.31-.527-1.853 4.09 2.123 6.883 6.366 6.883 11.26 0 6.566-5.027 11.924-11.472 12.59z"/></svg>