<svg xmlns="http://www.w3.org/2000/svg" width="80" height="80" viewBox="0 0 80 80"><path fill="#FFF" d="M32.078 37.282c-.452-1.678-1.405-3.663-1.76-3.663-.198 0-.255.59-.132 1.373.12.756.325 3.558.457 6.228s.374 4.855.537 4.855c.403 0 1.055-2.465 1.058-4 0-.69.274-1.555.606-1.924.544-.603.548-.732.043-1.31-.31-.353-.674-1.054-.81-1.558zm4.003-.982c-.132-.64-.467-1.354-.743-1.584-.424-.354-.473.315-.312 4.28.105 2.583.26 4.914.34 5.178.287.918.845.043 1.072-1.68.125-.952.398-2.082.606-2.51.282-.584.24-1-.17-1.65-.303-.478-.66-1.393-.792-2.034zm5.12 5.716c.212-.89.522-1.924.69-2.297.174-.39.157-.78-.04-.917-.19-.13-.542-.897-.782-1.703-.474-1.59-1.042-2.645-1.276-2.37-.08.094-.07 2.198.025 4.675.184 4.784.65 5.667 1.382 2.61zm3.1-6.762c-.144.09-.138 1.035.015 2.103.15 1.067.287 2.89.3 4.048.017 1.158.175 2.105.355 2.105.418 0 .768-.92.768-2.023 0-.48.366-1.125.82-1.45l.822-.583-.775-.627c-.426-.345-.89-1.12-1.033-1.725-.29-1.233-.88-2.09-1.273-1.848zm4.477 1.514c.13.787.236 2.475.24 3.75.002 1.69.127 2.28.46 2.17.25-.082.51-.55.58-1.037.067-.487.35-1.14.622-1.448.425-.48.366-.838-.404-2.455-1.18-2.48-1.813-2.893-1.5-.98zm4.256 2.268c0 3.553.383 4.26 1.11 2.05.524-1.6.255-4.056-.534-4.848-.525-.526-.577-.276-.577 2.798zm4.196.16c-1.047-.094-1.063-.074-.38.464.754.593 1.304.59 1.41-.006.035-.196-.43-.402-1.03-.457zm-55.24 3.42c.416.218.808.45 2.028.16.57-.364 1.94-1.603 3.044-2.748 4.088-4.242 11.144-8.098 18.242-9.972 2.89-.762 4.6-.94 10.25-1.1 7.597-.212 10.897.176 17.5 2.084 2.072.6 3.832 1.03 3.91.95.332-.333-5.502-2.82-8.493-3.618-1.785-.476-3.29-1.018-3.352-1.202-.06-.185.28-.58.764-.88.484-.303 1.47-1.026 2.19-1.604l1.31-1.042 1.403 1.442c.95.982 1.97 1.59 3.192 1.923.988.267 2.077.738 2.428 1.04.56.484.64.488.64.012 0-.703-1.29-1.825-2.977-2.587-.733-.332-1.637-1.045-2.007-1.58-1.132-1.64-1.856-2.347-2.872-2.347-.608 0-1.32.256-2.28.72-.837.407-2.714 1.164-4.173 1.684-1.457.52-3.312 1.31-4.115 1.763-1.177.664-2.085.836-4.697.88-9.828.17-20.102 3.552-27.363 9.01-3.75 2.824-5.93 6.167-4.57 7.01zm75.68 4.796c-.03-.512-.054-.85-.08-1.305-.238-5.725-.217-6.848.057-10.66.336-4.666.012-5.86-1.584-5.86-1.296 0-10.99 4.544-10.99 5.152 0 .508 1.998.27 6.35-.768 1.586-.378 3.05-.592 3.25-.47.223.14.275 1.635.137 3.928-.178 2.932-.08 4.415.49 7.144.762 3.65.918 5.896.41 5.896-.17 0-.982-.808-1.812-1.797-1.76-2.096-3.88-3.07-6.294-2.896l-1.618.114 2.404.836c2.65.92 3.48 1.66 5.838 5.21.87 1.31 1.753 2.508 1.96 2.655.554.394.787.346 1.29-.263.214-.26.31-.985.307-2.553v-.022c.034-1.1-.004-2.537-.115-4.34zm-58.933-9.674c-.448-.738-1.138-1.115-1.88-1.145-.957-.038-1.986.503-2.68 1.568-.633.97-.412 1.807.866 3.275.776.892 2.507.552 3.603-.698 1.004-1.145 1.01-1.484.09-3zm-3.158 1.546c-.12-.31-.102-.678.033-.813.038-.037.09-.058.148-.068.413-.068 1.265.486 1.438 1.008.217.65-1.37.528-1.62-.126zm9.68 9.812c-.194.346-1.12 1.09-2.064 1.648-1.433.846-2.116 1.006-4.093.973-3.772-.062-7.4-1.812-14.126-6.8l-1.597-1.18c-.367-.162-.998-.293-1.62-.274-.206.006-.41.023-.603.068-.025.022-.045.047-.068.07-.417.16-.597.54-.525 1.133v.023c-.023.463.133.943.49 1.34 1.77 1.965 10.833 6.635 14.15 7.293 2.2.435 3.264.43 5.323-.013 2.08-.447 4.604-2.132 5.21-3.47.473-1.042.05-1.76-.48-.81zM50.842 53.4c0 .627-.142.746-.638.537-4.958-2.09-8.09-2.705-9.384-1.854-1.058.696-1.22 1.914-.284 2.187.352.103 2.28.38 4.287.618s3.895.574 4.196.744c.387.22.923.316 1.458.298h.102c.46-.002.862-.093 1.14-.286l.024-.012c.004-.003.007-.01.01-.01.098-.05.195-.1.275-.162.44-.336.637-1.003.637-2.14 0-1.746.555-2.597 2.736-4.214.897-.665.972-.814.4-.824-2.076-.034-4.96 2.94-4.96 5.117zm-29.396-3.462c2.232-.936 3.11-3.448 1.84-5.27-.88-1.262-1.257-.974-1.257.96 0 2.278-.74 2.978-3.748 3.55l-2.272.43 1.277.39c1.795.54 2.758.528 4.16-.06zm46.217-6.52c.592-.198 1.662-1.688 1.96-2.727.275-.966-1.357-3.063-2.386-3.063-.84 0-.836-.056-.126 1.65.388.93.492 1.844.325 2.836-.187 1.116-.133 1.425.227 1.305zM57.42 33.76c-5.928-5.003-23.066-4.462-30.076-3.115-3.582.94-4.89 1.702-4.168 2.427.423.425.818.42 2.574-.042 8.6-2.255 21.357-2.188 28.568.15 2.35.762 3.102.903 3.102.58z"/></svg>