<svg xmlns="http://www.w3.org/2000/svg" width="80" height="80" viewBox="0 0 80 80"><path fill="#FFF" d="M46.65 26.88l-.97 2.45h1.9l-.93-2.45zM8.93 48.405c-.113-.137-.264-.245-.45-.325s-.42-.12-.7-.12h-.53v2.86h.53c.467 0 .827-.104 1.08-.31s.38-.558.38-1.05c0-.207-.023-.4-.07-.58-.046-.18-.127-.34-.24-.475zm15.73.415c-.054-.174-.14-.324-.255-.45-.117-.127-.27-.227-.46-.3-.19-.074-.42-.11-.695-.11h-.5v2.76h.53c.467 0 .827-.1 1.08-.295s.38-.542.38-1.034c0-.206-.027-.397-.08-.57zm14.155-.685c-.25.104-.47.254-.66.45-.19.196-.34.438-.455.726-.113.287-.17.617-.17.99 0 .493.054.952.16 1.375.107.423.262.79.465 1.1.204.31.455.552.755.726.3.175.643.26 1.03.26.313 0 .6-.06.86-.18s.483-.286.67-.5c.187-.212.332-.466.435-.76.104-.292.156-.612.156-.96 0-.48-.05-.924-.15-1.334s-.25-.768-.454-1.07-.46-.542-.77-.715c-.31-.173-.672-.26-1.085-.26-.273 0-.535.05-.785.155zM74.07 45l-.344-.085L47.896 35H53V23H41v12h3.604l-5.23 1.43L33.587 35H37V23H25v12h5.265L7.675 45H2v12h12V45h-2.18l14.93-4.082L23.895 45H18v12h12V45h-3.447l8.923-4.226L38.854 45H34v12h12V45h-5.865l-.01-.014 4.378-6.26 6.362 1.572L55.352 45H50v12h12V45h-5.266l-4.06-4.255L69.897 45H66v12h12V45h-3.93zm-63.935 5.03c-.097.22-.236.418-.42.595-.183.177-.41.322-.68.436s-.575.17-.915.17h-.87v2.05c0 .153.073.26.22.325.146.062.366.114.66.154.08.013.12.07.12.17 0 .046-.007.103-.02.17-.193-.014-.413-.025-.66-.036-.247-.01-.513-.015-.8-.015-.173 0-.37.004-.59.014-.22.01-.427.022-.62.035-.013-.067-.02-.12-.02-.16 0-.094.033-.147.1-.16.267-.054.445-.105.535-.155.09-.05.135-.142.135-.275v-5.09c0-.133-.052-.23-.155-.29-.103-.06-.288-.106-.555-.14-.067-.014-.1-.073-.1-.18 0-.047.007-.098.02-.15.187.014.385.025.595.035.21.01.408.015.595.015h1.41c.72 0 1.26.17 1.62.51.36.34.54.78.54 1.32 0 .214-.05.43-.145.65zM55.4 47.76c0 .1-.037.156-.11.17-.167.02-.295.047-.386.08-.09.033-.135.09-.135.17 0 .027.003.055.01.086.007.03.026.064.06.104l1.23 1.87 1.2-1.76c.066-.094.1-.178.1-.25 0-.146-.17-.247-.51-.3-.073-.015-.11-.07-.11-.17 0-.04.007-.095.02-.16l.56.034s.32.016.44.016c.174 0 .352-.006.535-.016s.35-.02.495-.035c.014.065.02.122.02.17 0 .053-.01.093-.034.12-.023.025-.052.043-.085.05-.186.02-.34.058-.46.114-.12.057-.216.143-.29.256l-1.61 2.36 1.84 2.86c.062.092.144.162.246.21.104.046.275.09.515.13.034.006.066.02.097.044.03.023.045.062.045.115 0 .045-.007.102-.02.17-.1-.008-.21-.015-.326-.022-.116-.006-.232-.012-.35-.015l-.335-.01s-.195-.005-.27-.005c-.18 0-.393.005-.64.015-.246.01-.486.02-.72.035-.014-.067-.02-.12-.02-.16 0-.093.036-.146.11-.16.16-.033.29-.07.39-.114.1-.044.15-.11.15-.195 0-.067-.023-.128-.07-.18l-1.37-2.122-1.29 1.95c-.087.134-.13.237-.13.31 0 .174.173.29.52.35.073.015.11.068.11.16 0 .04-.007.094-.02.16-.174-.013-.37-.024-.586-.034s-.404-.015-.564-.015c-.154 0-.3.002-.44.01-.14.005-.304.02-.49.04-.013-.068-.02-.125-.02-.17 0-.095.036-.148.11-.16.152-.034.305-.083.455-.147.15-.062.254-.14.314-.234l1.76-2.642-1.68-2.58c-.055-.086-.14-.158-.257-.215-.115-.057-.287-.095-.514-.115-.08-.006-.122-.066-.122-.18 0-.04.008-.094.02-.16.207.014.428.025.66.035s.43.016.59.016c.174 0 .383-.007.626-.017s.48-.02.715-.035c.014.068.02.123.02.162zM44.37 32.12c-.134 0-.27.003-.41.01-.14.007-.286.02-.44.04-.013-.053-.02-.106-.02-.16 0-.046.008-.086.025-.12.016-.034.05-.053.104-.06.206-.033.36-.075.465-.125.103-.05.178-.128.225-.235l2.41-5.8c.047-.113.11-.17.19-.17.026 0 .065.007.12.02l2.42 5.98c.04.093.13.167.27.22.14.054.276.09.41.11.04.013.07.032.094.055.023.023.035.065.035.125 0 .04-.007.094-.02.16-.214-.013-.425-.025-.63-.035-.208-.01-.4-.015-.58-.015-.188 0-.4.005-.64.015-.24.01-.458.022-.65.035-.015-.066-.02-.12-.02-.16 0-.06.01-.102.034-.125.022-.023.045-.035.064-.035.174-.034.313-.072.42-.115s.16-.108.16-.195c0-.04-.014-.09-.04-.15l-.63-1.65h-2.23l-.64 1.61c-.033.08-.05.146-.05.2 0 .14.203.24.61.3.046.006.077.025.095.055.016.03.024.064.024.104s-.007.093-.02.16c-.18-.014-.37-.026-.57-.036-.197-.01-.394-.014-.587-.014zm-6.976 4.85l-3.02.826-1.564-1.958 4.584 1.133zm-7.554-4.405c-.227-.01-.43-.015-.61-.015-.187 0-.383.005-.59.015-.207.01-.414.022-.62.035-.013-.067-.02-.127-.02-.18 0-.08.033-.126.1-.14.253-.047.427-.097.52-.15.093-.053.14-.146.14-.28v-5.08c0-.067-.008-.122-.025-.165s-.048-.082-.095-.115c-.047-.034-.112-.062-.195-.085-.083-.023-.19-.05-.325-.075-.067-.007-.1-.06-.1-.16 0-.046.007-.104.02-.17.167.013.36.025.58.035.22.01.42.015.6.015.187 0 .383-.005.59-.015.207-.01.41-.022.61-.035.013.066.02.124.02.17 0 .093-.033.146-.1.16-.26.04-.432.09-.515.15-.083.06-.125.157-.125.29v2.24h3.14v-2.24c0-.113-.04-.205-.12-.275-.08-.07-.25-.125-.51-.165-.073-.007-.11-.06-.11-.16 0-.046.006-.104.02-.17.167.013.36.025.585.035.223.01.425.015.605.015.187 0 .382-.005.585-.015.203-.01.408-.022.615-.035.014.066.02.124.02.17 0 .093-.033.146-.1.16-.26.04-.432.09-.515.15s-.125.157-.125.29v5.08c0 .133.043.225.13.275.087.05.26.102.52.155.067.013.1.06.1.14 0 .053-.007.113-.02.18-.167-.013-.363-.025-.59-.035-.227-.01-.43-.015-.61-.015-.187 0-.385.005-.595.015-.21.01-.415.022-.615.035-.013-.067-.02-.127-.02-.18 0-.08.034-.126.1-.14.247-.047.417-.097.51-.15.093-.053.14-.146.14-.28v-2.42H29.7v2.42c0 .133.043.225.13.275.086.05.26.102.52.155.073.013.11.06.11.14 0 .053-.007.113-.02.18-.173-.013-.373-.025-.6-.035zm1.687 3.27l1.798 2.25-4.17 1.14 2.372-3.39zm-17.958 7.65l16.492-7.302-2.415 3.452-14.078 3.85zM26.59 53.66c.153.066.297.117.43.15.06.013.09.06.09.14 0 .054-.006.113-.02.18-.153-.013-.34-.024-.56-.035-.22-.01-.423-.015-.61-.015-.14 0-.282-.06-.425-.18-.144-.12-.278-.273-.405-.46l-1.6-2.31h-.74v2.2c0 .145.068.245.205.3s.345.096.625.13c.08.013.12.07.12.17 0 .046-.007.103-.02.17-.18-.014-.398-.025-.655-.036-.256-.01-.508-.015-.755-.015-.173 0-.374.004-.6.014-.227.01-.44.022-.64.035-.013-.067-.02-.12-.02-.16 0-.094.037-.147.11-.16.253-.04.432-.09.535-.146.104-.057.155-.15.155-.285v-5.09c0-.128-.048-.223-.145-.286-.097-.062-.285-.11-.565-.145-.067-.008-.1-.064-.1-.17 0-.04.007-.095.02-.16.2.013.407.024.62.034s.417.015.61.015h1.35c.72 0 1.263.158 1.63.475s.55.744.55 1.285c0 .146-.025.3-.075.46-.05.16-.127.316-.23.47-.104.153-.237.295-.4.425-.164.13-.355.235-.575.315l1.67 2.32c.127.173.267.294.42.36zm-1.03-9.297l2.7-3.857 5.746-1.57.83 1.036-9.275 4.39zm9.496-5.716l4.33-1.184.49.12-4.113 1.95-.707-.886zm6.094 9.128c.434.184.79.43 1.074.74.283.31.496.668.635 1.074.14.405.21.833.21 1.28 0 .525-.087.997-.26 1.414-.174.416-.412.77-.715 1.06-.305.29-.66.512-1.07.665s-.85.23-1.315.23c-.473 0-.907-.08-1.3-.24-.394-.16-.732-.39-1.015-.687-.283-.296-.503-.65-.66-1.064s-.235-.873-.235-1.38c0-.46.083-.894.25-1.3.167-.407.394-.764.68-1.07s.62-.55 1-.73c.38-.18.78-.27 1.2-.27.58 0 1.087.092 1.52.275zm-1.677-3.602l-3.068-3.838 5.006-2.37 2.053.506-3.99 5.703zm4.604-6.58l-1.236-.307 2.17-1.027-.933 1.332zm1.04.256l1.442-2.063 3.02 3.164-4.463-1.1zm6.27 1.547l-2.99-3.134 17.505 6.72-14.514-3.586zM74.73 48.03c-.234.033-.398.075-.496.125-.096.05-.178.135-.244.255l-1.62 2.87v2.24c0 .145.055.248.165.305.11.057.295.104.555.146.073.014.11.067.11.16 0 .014-.002.03-.005.05-.004.02-.006.037-.006.05-.007.027-.01.048-.01.06-.16-.006-.317-.012-.47-.02l-.426-.02s-.28-.01-.395-.01-.245.003-.392.01l-.42.02c-.153.008-.307.014-.46.02-.007-.012-.01-.032-.01-.06-.007-.013-.01-.03-.01-.05v-.05c0-.093.032-.146.1-.16.26-.054.446-.104.56-.155.113-.05.17-.148.17-.295v-2.15l-1.67-3c-.066-.1-.15-.175-.25-.226-.1-.05-.236-.088-.41-.114-.033-.007-.06-.026-.074-.06-.016-.033-.024-.074-.024-.12v-.045c0-.017.004-.03.01-.045 0-.02.004-.04.01-.06.146.013.334.024.56.034.228.01.448.016.66.016.08 0 .174-.002.28-.005l.33-.01c.113-.004.223-.01.325-.015l.265-.02c0 .025.004.05.01.068 0 .02.002.037.006.05s.005.027.005.04c0 .04-.008.077-.023.11-.018.034-.042.054-.076.06-.192.027-.327.06-.403.096s-.115.088-.115.155c0 .053.023.115.07.19l1.24 2.238 1.17-2.08c.066-.12.1-.214.1-.28 0-.086-.045-.152-.135-.2s-.232-.086-.426-.12c-.07-.006-.108-.062-.108-.17 0-.033.004-.062.01-.09 0-.02.004-.043.01-.07.146.014.318.025.516.035.196.01.378.016.545.016.153 0 .314-.006.484-.017.17-.01.34-.02.506-.034 0 .025.003.05.01.068 0 .02.002.037.005.05s.005.027.005.04c-.003.095-.04.152-.113.172z"/></svg>