<svg xmlns="http://www.w3.org/2000/svg" width="80" height="80" viewBox="0 0 80 80"><path fill="#FFF" d="M45.602 48.397c-1.692-2.41-5.03-2.96-7.42-1.204-1.744 1.254-2.54 3.513-2.042 5.57l-1.943 1.404c-.896-.35-1.893-.3-2.79.05l-3.386-.903c-.148-.752-.497-1.505-.945-2.156-1.744-2.41-5.03-2.96-7.42-1.205s-2.94 5.068-1.196 7.478c1.692 2.41 5.03 2.96 7.42 1.205.498-.352.896-.752 1.245-1.254l1.943.503c.1 1.404 1.146 2.81 2.44 3.36l-.1 2.01c-.548.2-1.096.45-1.594.802-2.39 1.756-2.938 5.068-1.195 7.477 1.742 2.41 5.08 2.96 7.42 1.205 2.39-1.757 2.89-5.068 1.195-7.478-.448-.653-1.046-1.155-1.743-1.557l.2-3.513c.597-.753.945-1.706.895-2.66l1.942-1.404c1.792 1.104 4.133 1.003 5.876-.25 2.392-1.758 2.94-5.12 1.196-7.48zm-2.04 6.273c-1.546 1.154-3.687.954-4.982-.4l-3.586 2.61c.35.952.05 2.006-.747 2.658l-.3 5.118c.798.2 1.545.703 2.093 1.455 1.245 1.758.896 4.167-.847 5.42s-4.134.904-5.38-.853c-1.244-1.756-.846-4.164.848-5.42.648-.5 1.396-.752 2.143-.752l.25-4.517c-.798.05-1.595-.25-2.093-.953-.498-.652-.598-1.556-.25-2.26l-4.332-1.153c-.25.703-.697 1.306-1.345 1.807-1.744 1.254-4.134.903-5.38-.854s-.895-4.165.848-5.42c1.694-1.255 4.135-.853 5.38.853.498.702.747 1.605.697 2.46l4.93 1.304c.897-.552 1.993-.502 2.74.15l3.637-2.61c-.896-1.654-.398-3.762 1.146-4.916 1.744-1.255 4.134-.854 5.38.853 1.242 1.758.894 4.166-.85 5.42zm-3.588-4.918c-.797.604-1.096 1.656-.797 2.56l.648-.5c-.1-.554.1-1.105.547-1.456.647-.502 1.544-.352 1.992.3.498.653.35 1.556-.298 2.008-.45.352-1.096.352-1.545.1l-.646.503c.747.602 1.843.652 2.64.05.996-.702 1.195-2.058.498-3.062-.698-1.004-2.04-1.205-3.038-.503zm-6.176 17.363c.15.1.3.2.398.352.498.703.35 1.706-.35 2.208-.696.502-1.692.352-2.19-.35-.498-.704-.35-1.708.35-2.21.198-.15.397-.2.646-.25l.05-.804c-.398.05-.797.2-1.146.453-.996.752-1.245 2.207-.498 3.262.747 1.054 2.19 1.305 3.188.502 1.046-.754 1.295-2.21.548-3.263-.25-.35-.598-.603-.946-.753l-.05.855zM21.446 52.36c-1.046.755-1.295 2.21-.547 3.264.746 1.054 2.19 1.305 3.236.552.35-.25.598-.603.797-1.004l-.747-.2c-.1.2-.25.4-.448.552-.697.502-1.693.352-2.19-.352s-.35-1.706.348-2.208c.698-.502 1.694-.352 2.192.35.15.152.2.353.25.504l.796.2c-.05-.4-.2-.803-.448-1.154-.75-1.004-2.194-1.255-3.24-.503zm43.083 1.005c-.75.25-2.292.553-2.89 1.104l-2.39-1.155c-.5-.853-1.296-1.455-2.243-1.706l-.746-2.31c1.595-1.404 2.24-3.663 1.595-5.72-.897-2.81-3.886-4.366-6.675-3.463s-4.333 3.914-3.437 6.724c.697 2.01 2.54 3.515 4.632 3.665l.747 2.308c-.647.753-.896 1.706-.847 2.66l-1.893 2.96c-.797-.1-1.594-.05-2.34.2-2.79.904-4.335 3.915-3.438 6.726.896 2.81 3.885 4.364 6.674 3.462 2.79-.953 4.333-3.965 3.437-6.775-.15-.602-.448-1.154-.797-1.605l1.096-1.706c1.346.352 3.04-.15 3.936-1.254l1.893.702c0 .603.05 1.154.248 1.756.897 2.81 3.886 4.366 6.675 3.463 2.79-.903 4.334-3.914 3.487-6.574-.945-2.812-3.934-4.367-6.723-3.465zm2.738 8.632c-1.992.652-4.184-.452-4.83-2.51-.25-.752-.25-1.555-.05-2.257l-4.185-1.656c-.2.803-.746 1.455-1.543 1.705-.798.25-1.645.05-2.242-.503l-2.44 3.814c.598.452 1.046 1.105 1.295 1.858.647 2.006-.448 4.215-2.49 4.867-1.992.652-4.184-.452-4.83-2.51-.648-2.007.447-4.215 2.49-4.867.846-.25 1.742-.2 2.54.1l2.788-4.314c-.298-1.004.1-2.008.947-2.56l-1.345-4.266c-1.843.352-3.686-.753-4.283-2.61-.648-2.006.497-4.215 2.49-4.867s4.183.453 4.83 2.51c.598 1.857-.25 3.815-1.943 4.668l1.346 4.215c.996-.05 1.943.552 2.29 1.506l4.782 1.855c.448-.703 1.195-1.254 2.042-1.556 2.042-.653 4.185.45 4.83 2.508.65 2.01-.446 4.217-2.49 4.87zm-16.038-.05l-.448.653c.2.15.3.35.398.602.25.803-.2 1.706-.996 1.957-.847.25-1.743-.2-1.992-1.005-.25-.853.2-1.756.996-2.007.2-.05.398-.05.548-.05l.448-.703c-.398-.1-.847-.1-1.245.05-1.196.402-1.894 1.757-1.495 2.962.398 1.204 1.693 1.906 2.938 1.505 1.195-.4 1.893-1.706 1.494-2.96-.148-.403-.398-.755-.647-1.006zm14.196-5.922c-.45.15-.797.4-1.047.703l.796.3c.1-.1.3-.2.45-.25.846-.25 1.742.2 1.99 1.003.3.855-.15 1.758-.995 2.01-.846.25-1.743-.15-1.99-1.005-.1-.2-.1-.45-.052-.702l-.746-.3c-.1.4-.1.852.05 1.253.397 1.204 1.693 1.907 2.938 1.506s1.893-1.706 1.544-3.01c-.4-1.206-1.693-1.908-2.938-1.507zm-10.56-11.59c-.35-1.155-1.594-1.808-2.74-1.406-1.145.35-1.742 1.605-1.394 2.76.3.953 1.195 1.555 2.142 1.605l-.25-.803c-.547-.1-.995-.452-1.194-1.004-.25-.753.15-1.557.896-1.807.747-.25 1.544.15 1.793.903.198.553 0 1.154-.4 1.506l.25.752c.797-.5 1.195-1.555.897-2.508zm11.556-8.582c-.598 0-1.195.1-1.744.3L63.434 34.6c.746-1.204.746-2.96-.848-4.265l1.246-1.556c1.443.3 2.04.4 2.64.4 2.938 0 5.33-2.408 5.33-5.368 0-2.912-2.342-5.32-5.28-5.32-2.94 0-5.33 2.41-5.33 5.37 0 .802.15 1.605.498 2.308l-2.19 2.71c-.946.2-1.743.803-2.292 1.605h-2.39c-.798-1.957-2.74-3.312-4.882-3.312-2.938-.05-5.33 2.36-5.33 5.32 0 2.96 2.392 5.37 5.33 5.37 2.142 0 4.084-1.306 4.78-3.263h2.392c.55.803 1.346 1.355 2.29 1.606l2.192 2.71c-.298.702-.498 1.504-.498 2.307 0 2.96 2.39 5.37 5.33 5.37 2.938 0 5.33-2.41 5.33-5.37s-2.392-5.367-5.33-5.367zm.1 9.083c-2.093 0-3.837-1.707-3.837-3.865 0-.9.3-1.755.848-2.407L60.295 34.7c-1.045-.05-1.893-.754-2.14-1.707H53.72c-.3 1.856-1.893 3.312-3.834 3.312-2.143 0-3.836-1.756-3.836-3.864 0-2.157 1.693-3.863 3.836-3.863 1.892 0 3.485 1.456 3.785 3.312h4.434c.25-.954 1.146-1.657 2.142-1.707l3.236-3.964c-.547-.653-.846-1.506-.846-2.41 0-2.107 1.742-3.864 3.885-4.014 2.093 0 3.836 1.706 3.836 3.864 0 2.107-1.693 3.864-3.835 3.864-.796 0-1.544-.25-2.142-.652l-2.838 3.513c.697.402 1.145 1.154 1.145 2.007 0 .803-.447 1.556-1.145 1.957l2.838 3.512c.598-.4 1.346-.652 2.143-.652 2.143 0 3.836 1.707 3.836 3.864 0 2.106-1.693 3.862-3.835 3.862zm-.05-6.022c-.398 0-.847.1-1.195.35l.498.604c.2-.1.448-.15.697-.15.847 0 1.544.702 1.544 1.554 0 .854-.697 1.557-1.544 1.557s-1.544-.704-1.544-1.558c0-.2.05-.4.1-.55l-.55-.654c-.198.35-.347.752-.347 1.204 0 1.305 1.046 2.36 2.34 2.36s2.343-1.056 2.343-2.36c0-1.304-1.047-2.358-2.34-2.358zm-16.536-7.88c.598 0 1.096.353 1.295.855h.798c-.25-.904-1.096-1.607-2.092-1.607-1.195 0-2.19 1.003-2.19 2.208 0 1.205.995 2.21 2.19 2.21.996 0 1.843-.653 2.092-1.657h-.798c-.2.5-.697.853-1.295.853-.747 0-1.395-.652-1.395-1.455 0-.752.6-1.405 1.396-1.405zm15.09-6.673c-.05-.15-.1-.3-.1-.5 0-.854.698-1.556 1.545-1.556s1.545.702 1.545 1.555-.697 1.555-1.544 1.555c-.248-.05-.497-.1-.696-.2l-.498.602c.35.25.747.35 1.195.35 1.296 0 2.342-1.053 2.342-2.357s-1.047-2.308-2.34-2.36c-1.297 0-2.342 1.055-2.342 2.36 0 .452.148.853.35 1.205l.547-.654zm-32.623-6.673c.747.25 1.544.3 2.34.2l1.894 2.96c-.1 1.004.2 1.958.797 2.71l-.747 2.31c-2.092.15-3.985 1.605-4.632 3.662-.896 2.81.647 5.82 3.387 6.874 2.79.953 5.828-.603 6.724-3.412.647-2.058 0-4.316-1.594-5.72l.747-2.31c.945-.25 1.742-.903 2.24-1.706L46.798 22c.547.553 1.244.955 1.992 1.206 2.79.953 5.827-.603 6.724-3.412.946-2.86-.598-5.872-3.388-6.775-2.79-.954-5.827.602-6.724 3.412-.15.552-.25 1.154-.25 1.756l-1.892.703c-.896-1.103-2.54-1.655-3.935-1.304L38.23 15.88c.397-.502.646-1.004.846-1.606.946-2.81-.598-5.872-3.387-6.774-2.79-.903-5.78.652-6.725 3.462-.895 2.81.65 5.822 3.438 6.725zm-2.042-6.323c.648-2.057 2.79-3.162 4.832-2.51 2.042.653 3.138 2.81 2.49 4.87-.25.75-.697 1.404-1.295 1.855l2.44 3.813c.598-.502 1.444-.703 2.24-.452.8.252 1.346.955 1.496 1.708l4.184-1.656c-.2-.703-.2-1.505.05-2.258.696-2.007 2.84-3.11 4.88-2.458 2.043.703 3.14 2.86 2.49 4.917-.697 2.058-2.838 3.162-4.88 2.51-.897-.252-1.595-.855-2.042-1.557l-4.782 1.857c-.35.953-1.295 1.556-2.29 1.505l-1.396 4.215c1.693.853 2.54 2.81 1.942 4.667-.698 2.007-2.89 3.11-4.882 2.46-1.992-.704-3.088-2.86-2.44-4.918.598-1.857 2.44-2.91 4.283-2.61l1.396-4.215c-.797-.552-1.246-1.555-.947-2.56l-2.74-4.315c-.797.3-1.693.352-2.54.05-2.04-.653-3.136-2.86-2.49-4.918zm2.89 3.412c.45.15.847.15 1.245.05l-.448-.702c-.15.05-.35 0-.498-.05-.798-.25-1.246-1.154-.997-1.957.3-.803 1.195-1.254 1.992-1.003.797.3 1.245 1.154.996 2.007-.1.25-.248.453-.397.603l.398.652c.35-.3.55-.652.698-1.054.4-1.253-.25-2.558-1.494-2.96-1.195-.4-2.54.3-2.988 1.456-.4 1.254.25 2.56 1.494 2.96zm15.69 3.463c-.05-.202 0-.453.05-.704.298-.803 1.194-1.254 1.99-1.003s1.246 1.154.997 1.957-1.146 1.254-1.942 1.004c-.2-.05-.35-.15-.498-.25l-.797.3c.248.3.598.552.996.703 1.244.4 2.54-.3 2.938-1.505.4-1.205-.298-2.56-1.494-2.96-1.244-.402-2.54.25-2.938 1.505-.1.4-.1.853-.05 1.254l.747-.3zM38.33 29.33l-.248.802c.398.35.598.953.398 1.505-.25.753-1.046 1.154-1.793.903s-1.146-1.054-.896-1.807c.2-.502.648-.903 1.196-.954l.25-.753c-.947-.05-1.894.552-2.192 1.505-.398 1.154.25 2.358 1.395 2.76 1.145.402 2.34-.25 2.738-1.405.348-1.002-.05-2.006-.847-2.558zM18.757 41.07l3.387-.902c.896.4 1.893.4 2.79.05l1.942 1.405c-.498 2.058.298 4.316 2.042 5.57 2.39 1.706 5.728 1.204 7.42-1.205 1.744-2.357 1.246-5.72-1.145-7.477-1.743-1.253-4.084-1.353-5.877-.25l-1.942-1.404c.05-.954-.3-1.907-.896-2.66l-.2-3.513c.698-.4 1.296-.903 1.744-1.556 1.744-2.41 1.196-5.72-1.145-7.477-2.39-1.756-5.678-1.254-7.42 1.154-1.744 2.41-1.196 5.77 1.145 7.578.498.35 1.046.652 1.594.803l.1 2.007c-1.295.502-2.34 1.957-2.44 3.362l-1.942.5c-.35-.5-.747-.952-1.246-1.304-2.39-1.756-5.678-1.254-7.42 1.154-1.695 2.41-1.197 5.77 1.194 7.477 2.39 1.757 5.678 1.205 7.37-1.153.498-.6.797-1.353.946-2.156zm-2.09 1.306c-1.246 1.706-3.637 2.107-5.38.853-1.743-1.255-2.092-3.714-.847-5.42 1.244-1.707 3.635-2.108 5.378-.854.647.452 1.096 1.104 1.345 1.807l4.333-1.154c-.3-.704-.25-1.557.25-2.26.497-.702 1.294-1.053 2.09-.953l-.248-4.516c-.747-.05-1.495-.3-2.142-.752-1.743-1.254-2.092-3.713-.847-5.42 1.244-1.755 3.685-2.106 5.378-.852s2.092 3.663.847 5.42c-.498.752-1.245 1.253-2.092 1.454l.3 5.12c.796.65 1.045 1.755.696 2.66l3.585 2.608c1.345-1.355 3.486-1.556 5.03-.4 1.744 1.253 2.093 3.712.848 5.418-1.245 1.757-3.636 2.108-5.38.853-1.543-1.154-1.99-3.263-1.145-4.918l-3.586-2.61c-.797.653-1.892.704-2.74.152l-4.93 1.305c.05.85-.2 1.703-.747 2.456zM24.98 26.92c-.1.15-.25.25-.398.352l.05.853c.348-.15.697-.4.946-.752.797-1.004.548-2.51-.5-3.262-.995-.752-2.49-.55-3.236.503-.747 1.003-.548 2.51.498 3.262.398.25.797.4 1.146.452l-.05-.803c-.2 0-.447-.1-.647-.25-.696-.502-.846-1.506-.348-2.208.5-.703 1.494-.853 2.19-.352.7.5.848 1.503.35 2.206zm-10.16 14.1c-.498.703-1.494.854-2.19.352-.698-.5-.848-1.505-.35-2.208.498-.702 1.494-.853 2.19-.35.2.15.35.35.45.55l.796-.2c-.2-.352-.448-.703-.797-.953-.996-.802-2.49-.55-3.237.502-.747 1.003-.547 2.508.548 3.262 1.047.752 2.49.55 3.238-.502.3-.352.398-.753.448-1.154l-.847.2c-.05.202-.15.353-.248.503zm15.988 3.615c.946.7 2.34.5 3.04-.502.696-.953.497-2.36-.5-3.062-.846-.602-1.892-.55-2.688.05l.747.503c.447-.25 1.095-.25 1.543.1.647.452.747 1.355.3 2.008-.45.604-1.346.754-1.993.302-.448-.35-.647-.902-.548-1.455l-.647-.502c-.35.904-.052 1.956.745 2.56z"/></svg>