<svg xmlns="http://www.w3.org/2000/svg" width="80" height="80" viewBox="0 0 80 80"><path fill="#FFF" d="M16.734 25.957c-1.337 4.474-.244 9.52 3.287 13.05l1.14 1.138 5.845 5.842 6.19 6.18 5.838-5.843-6.182-6.18-5.845-5.84-1.143-1.14c-1.89-1.89-1.894-4.974.01-6.878 1.898-1.897 4.973-1.897 6.87-.002l.453.456 5.845-5.842-.455-.455c-3.332-3.332-8.01-4.498-12.282-3.496-.614-3.763-3.88-6.636-7.816-6.638-4.374 0-7.92 3.546-7.92 7.92 0 3.773 2.637 6.93 6.167 7.727zm10.964 7.655l5.845 5.842 6.184-6.177 5.846-5.842 1.14-1.14c1.904-1.902 4.972-1.898 6.862-.01 1.896 1.897 1.896 4.974-.002 6.87l-.45.454 5.84 5.845.456-.457c3.493-3.498 4.604-8.476 3.33-12.915 3.88-.51 6.877-3.833 6.877-7.853 0-4.376-3.547-7.92-7.92-7.92-4.005 0-7.314 2.97-7.848 6.826-4.457-1.308-9.47-.2-12.988 3.316l-1.14 1.138-5.846 5.84-6.188 6.182zM62.893 53.68c1.045-4.3-.115-9.025-3.475-12.385l-1.148-1.15-5.84-5.844-6.166-6.172-5.846 5.84 6.172 6.177 5.84 5.846 1.143 1.145c1.904 1.904 1.9 4.97.01 6.863-1.895 1.895-4.973 1.895-6.87-.002l-.448-.45-5.84 5.847.447.447c3.56 3.557 8.65 4.645 13.145 3.262.732 3.62 3.93 6.34 7.764 6.34 4.373 0 7.92-3.543 7.92-7.918 0-3.997-2.96-7.302-6.807-7.844zm-11.155-6.996l-5.84-5.845-6.172 6.177-5.84 5.843-1.145 1.146c-1.89 1.89-4.973 1.895-6.876-.008-1.898-1.9-1.898-4.972-.002-6.87l.452-.448-5.846-5.84-.447.444c-3.396 3.396-4.54 8.19-3.436 12.53-3.493.824-6.092 3.964-6.092 7.71 0 4.372 3.545 7.918 7.92 7.918 3.764-.003 6.915-2.624 7.722-6.144 4.32 1.072 9.077-.076 12.45-3.45l1.147-1.147 5.842-5.844 6.166-6.172z"/></svg>