<svg xmlns="http://www.w3.org/2000/svg" width="80" height="80" viewBox="0 0 80 80"><path fill="#FFF" d="M74.463 18.344c-.718.967-2.104 2.43-2.45 4.29-.085.506.204.324.264-.002.336-1.907 1.942-3.496 2.437-4.183.188-.293.07-.498-.25-.106zm-8.675 3.52c1.382 1.184 4.28.234 3.763-2.12-2.146-.175-3.39.544-3.762 2.12zm8.392-3.977c-.85.857-2.527 2.79-3.137 4.583-.156.49.156.35.264.034.604-1.842 2.52-3.868 3.105-4.48.23-.26.143-.48-.232-.137zm.613.857c-.633 1.024-1.467 2.202-1.655 4.084-.042.51.23.307.263-.024.173-1.928 1.218-3.25 1.65-3.976.166-.306.03-.5-.257-.084zM77.3 15c-1.2.04-.82.38-3.412 1.008-2.615.635-5.81.44-8.628 1.605-8.408 3.478-10.096 15.365-17.74 19.623-5.713 3.184-11.48 3.438-16.662 5.04-3.406 1.052-7.132 3.212-10.218 5.835-2.396 2.038-2.458 3.828-4.96 6.382-2.678 2.732-10.64.047-14.25 4.23 1.163 1.157 1.672 1.482 3.963 1.182-.475.887-3.27 1.634-2.723 2.938.576 1.372 7.335 2.303 13.48-1.356 2.862-1.704 5.14-4.16 9.598-4.745 5.767-.76 12.41.487 19.088 1.437-.99 2.91-2.978 4.847-4.57 7.165-.493.523.99.582 2.682.266 3.045-.742 5.238-1.34 7.536-2.66 2.822-1.618 3.25-5.773 6.713-6.673 1.93 2.926 7.177 3.616 10.434 1.277-2.855-.798-3.646-6.797-2.682-9.44.914-2.5 1.816-6.503 2.736-9.81.988-3.553 1.354-8.03 2.548-9.84 1.8-2.72 3.786-3.656 5.513-5.19 1.725-1.536 3.304-3.03 3.252-6.543-.015-1.132-.608-1.763-1.698-1.73zM65.2 57.42c-1.87.447-5.094-.294-5.92-1.596.424-1.88 2.636-3.598 3.767-4.78.116 1.84 1.2 5.488 2.154 6.375zm8.653-33.692c-1.626 1.125-3.407 2.208-4.553 3.965-1.173 1.8-1.917 7.96-3.735 14.043-1.572 5.256-3.945 10.454-8.092 12.73-.433-1.074.056-3.06-.806-3.71-.558 1.567-1.188 3.063-1.926 4.453-2.432 4.584-6.033 8.018-12.052 9.065 2.855-3.81 5.587-7.746 5.646-14.315-2.01.43-1.967 5.11-4.03 6.363-1.325.142-2.667.14-4.016.06-5.543-.326-11.23-1.97-16.415-.328-3.53 1.118-6.418 3.754-9.408 5.033-3.514 1.503-6.175 2.12-10.55 1.503-.557-.737 3.2-1.69 2.977-3.292-1.713-.188-2.707.222-4.195-.445.164-.3.406-.547.71-.754 2.728-1.864 10.478-.44 12.552-2.45 1.28-1.238 2.12-2.535 2.99-3.796.842-1.224 1.714-2.412 3.042-3.483.49-.395 1.023-.786 1.59-1.167 2.263-1.528 5.063-2.914 7.818-3.87 3.754-1.3 7.558-1.407 11.56-2.915 2.47-.932 5.158-2.083 7.35-3.693.52-.383 1.012-.79 1.467-1.228 6.257-6.015 7.497-16.625 17.257-17.613 1.18-.12 2.146-.08 3.025-.107 1.014-.03 1.91-.146 2.886-.688.288.968.74 1.412 2.688 1.59-.285 2.437-1.933 3.77-3.78 5.048zm1.303-4.674c-.54 1.075-1.047 1.893-1.066 3.784.004.512.257.285.26-.047 0-1.935.704-2.915 1.07-3.675.138-.32-.014-.502-.264-.06z"/></svg>