<svg xmlns="http://www.w3.org/2000/svg" width="80" height="80" viewBox="0 0 80 80"><path fill="none" d="M48.244 21.74c-1.572.02-7.556 10.636-8.244 10.636S33.33 21.76 31.756 21.74h-8.263c-2.855 18.307-1.36 35.446-1.36 35.446h8.924c-.85-4.57-3.896-25.448-1.36-25.517 1.357.217 7.562 17.71 7.562 17.71s1.366-.17 2.74-.17 2.743.17 2.743.17 6.205-17.494 7.562-17.71c2.535.068-.512 20.946-1.36 25.516h8.925s1.493-17.14-1.36-35.445h-8.266z"/><circle fill="none" cx="35.704" cy="55.037" r="2.148"/><path fill="none" d="M48.244 21.74c-1.572.02-7.556 10.636-8.244 10.636S33.33 21.76 31.756 21.74h-8.263c-2.855 18.307-1.36 35.446-1.36 35.446h8.924c-.85-4.57-3.896-25.448-1.36-25.517 1.357.217 7.562 17.71 7.562 17.71s1.366-.17 2.74-.17 2.743.17 2.743.17 6.205-17.494 7.562-17.71c2.535.068-.512 20.946-1.36 25.516h8.925s1.493-17.14-1.36-35.445h-8.266z"/><path fill="#FFF" d="M50.21 11H29.79C13.35 11 11 13.352 11 29.81v20.38C11 66.648 13.35 69 29.792 69H50.21C66.65 69 69 66.648 69 50.19V29.81C69 13.353 66.65 11 50.21 11zM35.703 57.186c-1.187 0-2.148-.962-2.148-2.148s.96-2.148 2.148-2.148 2.148.962 2.148 2.148-.962 2.148-2.148 2.148zm8.593 0c-1.188 0-2.148-.962-2.148-2.148s.96-2.148 2.147-2.148c1.186 0 2.147.962 2.147 2.148s-.962 2.148-2.147 2.148zm13.572 0h-8.927c.85-4.57 3.896-25.448 1.36-25.517-1.356.217-7.56 17.71-7.56 17.71s-1.368-.17-2.743-.17-2.742.17-2.742.17-6.206-17.494-7.563-17.71c-2.534.068.512 20.946 1.36 25.516h-8.924s-1.493-17.14 1.362-35.445h8.263c1.574.02 7.557 10.636 8.245 10.636s6.672-10.616 8.244-10.635h8.264c2.854 18.306 1.36 35.446 1.36 35.446z"/></svg>