<svg xmlns="http://www.w3.org/2000/svg" width="80" height="80" viewBox="0 0 80 80"><path fill="#FFF" d="M40.263 30.232c.026-8.196-.154-16.393-.25-24.888-1.258 1.428-2.098 2.532-3.087 3.48-11.12 10.644-15.01 23.603-11.82 38.486 1.542 7.188 5.923 12.817 12.645 17.64.744-5.14 1.705-9.702 1.998-14.31.43-6.786.493-13.603.515-20.408zm6.06-16.084c-1.58-2.074-3.47-3.912-5.503-6.18-.042.618-.09.91-.077 1.2.487 11.874 1.04 23.746 1.452 35.623.248 7.158-.523 14.224-2.12 21.23-.613 2.683-.512 5.527-.728 8.196 2.438.803 3.432.12 3.44-1.88.01-1.423.046-2.864-.15-4.27-.228-1.644.19-2.766 1.553-3.854 3.726-2.97 6.54-6.748 8.38-11.105 6.008-14.237 2.79-27.1-6.246-38.96z"/></svg>