<svg xmlns="http://www.w3.org/2000/svg" width="80" height="80" viewBox="0 0 80 80"><path fill="#FFF" d="M60.742 53.787v-6.09c0-1.546-1.1-2.484-3.275-2.78-.25-.032-.476-.05-.726-.05h-4.925c-.225 0-.476.018-.7.05-2.176.296-3.275 1.234-3.275 2.78v6.09c0 1.415.8 2.27 2.45 2.715.55.148 1.05.215 1.525.215h2.775l2.082-.13 2.068 1.842h3.013l-2.556-2.28c1.078-.437 1.545-1.11 1.545-2.363zm-2.426-.1c0 .083 0 .166-.024.248-.08.36-.31.64-.657.822l-1.89-1.684h-3.013l2.166 1.93H52.54c-1.024 0-1.7-.395-1.85-1.102-.024-.1-.05-.18-.05-.263v-5.792c0-.773.75-1.267 1.9-1.267h3.926c1 0 1.676.378 1.825 1.036.025.082.025.165.025.23v5.844zM36.9 45.06c-1.546.476-2.22 1.23-2.22 2.546V49.1c0 1.15 1.323 2.135 3.543 2.364.25.017.5.032.75.032h2.694c.1 0 .2 0 .274.018.825.065 1.174.213 1.424.51.15.146.2.295.2.46v1.493c0 .18-.125.41-.375.607-.226.197-.6.328-1.1.36-.1 0-.174.018-.274.018h-7.16v1.708h7.46c.874 0 1.722-.182 2.396-.493 1.123-.51 1.672-1.198 1.672-2.103v-1.87c0-.74-.624-1.43-1.847-1.89-.65-.246-1.447-.378-2.22-.378H38.97c-1.048 0-1.547-.312-1.672-1-.025-.083-.025-.15-.025-.23v-1.167c0-.066 0-.132.025-.214.125-.525.4-.674 1.323-.756.075 0 .174-.017.25-.017h7.41v-1.708H39c-1.05 0-1.598.067-2.097.215zm-6.845 3.348v6.637c-.045 0-4.918.01-5.643 0-1.42-.023-1.544-.733-1.52-1.036v-5.574h-2.594c.057.056 0 5.63 0 5.75.02 1.27 1.655 2.377 4.222 2.4h5.516v.67c0 .277.197 1.097-1.473 1.27-.02.003-8.194.002-8.208.002v1.723h8.194c1.298-.036 4.118-.52 4.104-2.753 0-.038.014-9.088.002-9.088h-2.6zm-13.138-3.545c-1.97-.608-3.294-.083-3.893 1.23L9.08 54.796l-3.816-8.703c-.574-1.313-1.92-1.84-3.893-1.23C.548 45.11.15 45.585.15 46.57v10.1h2.595V46.554l4.018 8.818c.475 1.067 1.124 1.445 2.397 1.445s1.896-.378 2.37-1.445l4.018-8.818V56.67h2.595v-10.1c0-.985-.4-1.46-1.223-1.707zm38.15-19.82v.045h.045c.16.322.438.53.636.806l.453.94.046-.044c.28-.195.41-.508.408-.985-.112-.117-.13-.263-.227-.403-.13-.186-.38-.292-.544-.448-.332-.006-.567.035-.817.09zm9.9 28.638v-8.834h-2.594v8.852c0 1.757 1.322 2.742 3.992 2.94.25.016.5.032.748.032h6.763v-1.708h-6.812c-1.523 0-2.096-.378-2.096-1.28zm12.04-.655c-1.01 0-1.913.76-1.913 1.888s.902 1.888 1.912 1.888 1.913-.76 1.913-1.887-.904-1.888-1.914-1.888zm0 3.383c-.83 0-1.484-.64-1.484-1.495 0-.856.653-1.495 1.483-1.495.822 0 1.484.64 1.484 1.495 0 .856-.662 1.495-1.484 1.495zm.907-1.953c0-.438-.28-.62-.82-.62h-.853v2.155h.368v-.932h.342l.57.932h.43l-.628-.946c.337-.035.592-.196.592-.59zm-1.306.302v-.62h.423c.222 0 .486.04.486.293 0 .302-.24.327-.515.327h-.392zm1.23-6.833c.213.154.356.396.635.492v-.045c-.146-.183-.184-.435-.318-.626l-.59-.582c-.576-.755-1.31-1.418-2.086-1.97-.622-.44-2.01-1.033-2.27-1.746l-.045-.045c.44-.048.955-.205 1.36-.312.683-.18 1.292-.134 1.996-.313l.954-.27v-.18c-.356-.36-.61-.837-.998-1.163-1.016-.854-2.125-1.706-3.266-2.417-.634-.395-1.416-.65-2.087-.985-.226-.113-.622-.17-.77-.358-.354-.444-.545-1.006-.816-1.522-.57-1.083-1.13-2.265-1.634-3.403-.344-.777-.57-1.542-.997-2.24-2.06-3.34-4.277-5.36-7.71-7.342-.732-.42-1.612-.588-2.542-.806L55.158 22c-.305-.126-.622-.494-.908-.672-1.137-.71-4.055-2.253-4.898-.224-.53 1.28.795 2.53 1.27 3.18.334.455.76.965.998 1.477.157.337.184.675.318 1.03.33.878.616 1.832 1.043 2.643.217.41.454.842.728 1.21.166.224.453.323.498.67-.28.387-.296.988-.453 1.478-.71 2.208-.44 4.95.59 6.584.316.5 1.06 1.576 2.086 1.164.895-.36.695-1.477.952-2.462.058-.223.02-.388.135-.537v.044l.817 1.612c.604.96 1.677 1.964 2.585 2.642.47.352.842.96 1.45 1.164v-.045h-.045c-.117-.182-.303-.256-.453-.402-.355-.344-.75-.77-1.043-1.164-.828-1.107-1.56-2.32-2.224-3.582-.318-.603-.594-1.267-.862-1.88-.104-.237-.103-.594-.317-.717-.293.45-.726.814-.953 1.345-.362.848-.41 1.882-.543 2.955-.08.028-.044.01-.09.044-.632-.15-.855-.792-1.09-1.343-.593-1.392-.704-3.635-.18-5.238.134-.415.745-1.722.497-2.104-.117-.383-.507-.604-.725-.896-.27-.36-.54-.836-.727-1.253-.486-1.087-.713-2.306-1.225-3.404-.244-.525-.658-1.056-.998-1.522-.375-.517-.797-.897-1.088-1.522-.104-.222-.244-.578-.09-.806.048-.154.117-.218.27-.27.264-.2.997.067 1.27.18.73.298 1.335.582 1.952.985.295.195.594.57.95.673h.41c.638.145 1.353.045 1.95.224 1.055.316 2 .81 2.857 1.343 2.614 1.63 4.752 3.95 6.215 6.716.234.446.336.87.543 1.344.42.953.946 1.934 1.362 2.865.415.93.82 1.868 1.406 2.642.31.407 1.5.625 2.04.85.38.16 1.003.324 1.362.538.686.41 1.352.896 1.996 1.344.32.222 1.31.713 1.36 1.118-1.596-.043-2.813.104-3.856.537-.295.123-.768.126-.816.492.163.168.188.42.318.627.248.397.668.93 1.043 1.21.41.304.83.63 1.27.895.78.47 1.652.737 2.404 1.208.445.273.884.622 1.317.936z"/></svg>