<svg xmlns="http://www.w3.org/2000/svg" width="80" height="80" viewBox="0 0 80 80"><path fill="#FFF" d="M29.535 33.372c-.013-.79-.026-1.736-.09-2.487l.038-.04c.17.532.662 1.66 1.143 2.656l2.013 4.21h1.57v-8.963h-1.416l.026 4.093c0 .816.09 2.1.13 2.552l-.04.04c-.117-.416-.506-1.478-.922-2.307l-2.182-4.378H28.12v8.963h1.467l-.052-4.338zm10.61 2.772c-.495.427-1.027.647-1.637.647-1.286 0-1.623-.957-1.623-1.864v-.104h3.922v-.298c0-1.53-.286-2.332-.857-2.85-.558-.505-1.156-.674-1.805-.674-.83 0-1.48.272-2.013.88-.57.65-.818 1.413-.818 2.566 0 2.098 1.168 3.432 3.025 3.432.882 0 1.674-.285 2.362-.868l-.558-.866zm-2-4.067c.713 0 1.18.635 1.18 1.697H36.9c0-1.063.44-1.697 1.246-1.697zm10.257 5.66l1.856-6.58h-1.48l-.675 3.057c-.17.764-.324 1.762-.324 1.762h-.04s-.143-.803-.416-1.865l-.74-2.952h-1.402l-.844 3.03c-.247.908-.377 1.763-.377 1.763h-.038s-.156-.906-.338-1.722l-.714-3.173-1.415.194 1.792 6.49h1.337l.793-2.954c.324-1.205.428-1.853.428-1.853h.026s.222 1.01.43 1.788l.805 3.02h1.337zM30.576 45.31c1.402 0 2.233-1.178 2.233-2.46 0-1.398-.91-2.564-2.923-2.564h-2.74v8.963h1.467v-3.874c.286.014.416.104.584.272.493.492.91 1.114 1.532 2.215l.78 1.386h1.778l-1.325-2.15c-.465-.753-1.063-1.62-1.387-1.79zm-1.96-.984V41.49h.817c1.325 0 1.818.466 1.818 1.372 0 .467-.155.843-.4 1.09-.273.27-.69.374-1.468.374h-.767zm7.894-1.787c-.83 0-1.48.27-2.013.88-.57.647-.818 1.41-.818 2.564 0 2.098 1.167 3.432 3.024 3.432.883 0 1.675-.284 2.363-.867l-.558-.868c-.495.427-1.027.646-1.637.646-1.286 0-1.624-.958-1.624-1.865v-.104h3.92v-.298c0-1.53-.285-2.332-.856-2.85-.558-.505-1.155-.673-1.804-.673zm-1.247 2.77c0-1.06.44-1.696 1.247-1.696.714 0 1.182.635 1.182 1.697h-2.43zm6.74 2.94c-.105-.154-.144-.297-.144-1.178v-5.557c0-.855-.015-1.4-.118-1.8l-1.467.323c.09.544.13 1.023.13 1.917v5.583c0 .557 0 1.852 1.44 1.852.326 0 .6-.052.858-.155l-.233-.88c-.17.077-.39.012-.468-.104zm2.35-8.43c-.532 0-.948.426-.948.957 0 .518.402.945.922.945.532 0 .96-.428.96-.945 0-.544-.43-.958-.935-.958zm-.74 9.428h1.44v-6.71l-1.44.26v6.45zm5.635-.92c-.352 0-.662-.143-.87-.375-.3-.324-.442-.895-.442-1.787 0-.816.078-1.426.273-1.826.206-.428.583-.66 1.038-.66.376 0 .713.154 1.104.504l.714-.945c-.585-.545-1.104-.714-1.817-.714-1.47 0-2.897 1.14-2.897 3.523 0 2.11 1 3.366 2.792 3.366.883 0 1.507-.27 2.104-.867l-.676-.868c-.43.426-.872.646-1.326.646zm3.217 1.064c.527 0 .96-.424.96-.962 0-.535-.433-.962-.96-.962-.525 0-.96.427-.96.962 0 .538.434.962.96.962zm0-1.733c.41 0 .742.34.742.77s-.332.775-.742.775-.738-.346-.738-.775.33-.77.738-.77zm-.124.853c.014 0 .024.003.035.007.04.016.072.07.18.265.04.077.06.106.1.18h.257s-.196-.343-.26-.42c-.013-.02-.022-.028-.044-.047.133-.003.242-.135.242-.298 0-.188-.127-.315-.32-.315h-.4v1.08h.212v-.452zm0-.456h.08c.05 0 .098.008.12.016.052.02.078.065.078.133 0 .043-.015.082-.04.108-.03.026-.07.036-.164.036h-.073v-.293zm22.054-15.49c-3.25-14.904-21.09-23.633-39.812-19.572-18.724 4.06-31.32 19.393-28.07 34.295 3.247 14.902 21.087 23.632 39.81 19.57 18.723-4.06 31.32-19.39 28.072-34.294zM46.11 65.882c-18.228 3.953-35.504-4.5-38.623-18.806-3.12-14.306 9.08-29.15 27.306-33.104 18.227-3.954 35.503 4.5 38.623 18.807 3.12 14.304-9.078 29.15-27.306 33.103zm-2.244-49.92c-13.47 0-24.39 10.894-24.39 24.33 0 13.438 10.92 24.333 24.39 24.333S68.258 53.73 68.258 40.294c0-13.437-10.922-24.33-24.392-24.33zm0 47.662c-12.917 0-23.39-10.447-23.39-23.332 0-12.884 10.472-23.33 23.39-23.33 12.918 0 23.392 10.446 23.392 23.33 0 12.885-10.474 23.332-23.392 23.332zm-4.653-42.457c-10.172 0-18.417 8.224-18.417 18.37 0 10.15 8.244 18.374 18.417 18.374 10.17 0 18.416-8.227 18.416-18.374 0-10.145-8.247-18.37-18.417-18.37zm0 35.744c-9.62 0-17.417-7.777-17.417-17.374 0-9.594 7.796-17.37 17.417-17.37 9.62 0 17.416 7.777 17.416 17.37 0 9.595-7.798 17.374-17.417 17.374z"/></svg>