<svg xmlns="http://www.w3.org/2000/svg" width="80" height="80" viewBox="0 0 80 80"><path fill="#FFF" d="M54.15 27.633c-.718.1-1.27.408-1.23.688.04.28.653.864 1.37.764.72-.1 1.27-.846 1.23-1.126-.038-.28-.652-.425-1.37-.325zM36.278 28.89c.04-.28-.51-.587-1.23-.687-.718-.1-1.332.046-1.37.325-.04.28.51 1.026 1.23 1.126.717.1 1.33-.483 1.37-.763zm31.27 17.45c-.022-.094-.063-.227-.147-.365-.32-.666-1.143-.868-2.446-.598-3.982.822-5.524.316-6.084-.047 3.232-4.94 5.89-10.907 7.325-16.473.692-2.683 2.075-9.212-.02-11.894-3.984-5.097-9.495-6.166-13.417-6.166-3.435 0-6.22.79-7.13 1.107-.462-.09-.94-.167-1.432-.23-.99-.182-2.042-.29-3.16-.31-2.91-.046-5.414.667-7.475 2.118-1.447-.533-5.484-1.863-9.715-1.863-3.84 0-6.83 1.094-8.88 3.253-2.31 2.433-3.357 6.178-3.11 11.13.095 1.894 1.263 8.42 3.253 14.692 2.572 8.104 5.38 12.21 8.347 12.21 1.19 0 2.335-.65 3.4-1.933 1.93-2.324 3.833-4.404 4.685-5.324 1.043.563 2.185.873 3.348.91v.01c-.236.28-.43.527-.595.736-.816 1.038-.986 1.254-3.613 1.796-.748.154-2.732.563-2.76 1.958-.007.295.078.557.22.787.546 1.02 2.22 1.47 2.445 1.527.937.234 1.855.354 2.727.354 2.21 0 4.134-.762 5.642-2.22.312 1.022.63 3.062.562 5.393-.087 2.948-.15 5.08.483 6.803.05.14.106.31.164.488.49 1.503 1.403 4.3 5.018 4.3.563 0 1.18-.072 1.832-.21 4.432-.952 6.844-3.546 7.167-7.708.095-1.206.238-1.725.377-2.227.16-.58.31-1.127.336-2.396l.338-1.017c.02-.055.03-.11.038-.168.07-.586.12-1.105.164-1.564.084-.886.15-1.585.295-1.935.054-.132.064-.156.31-.156.194 0 .458.036.788.107.035.008.07.013.106.017l.613.053.035.003c.182.01.37.013.564.013 1.957 0 4.182-.423 5.532-1.052 1.484-.69 4.207-2.396 3.873-3.91zm-14.79-33.833c5.152 0 9.213 1.854 12.07 5.51 2.123 2.717-.213 15.074-6.977 25.74-.083-.11-.17-.22-.26-.333-.028-.035-.058-.07-.086-.107 1.75-2.893 1.407-5.755 1.103-8.293-.125-1.042-.242-2.025-.213-2.95.03-.978.16-1.82.285-2.63.153-1.002.31-2.038.267-3.258.03-.128.045-.28.027-.46-.11-1.17-1.444-4.673-4.165-7.845-1.465-1.705-3.59-3.61-6.48-4.92 1.165-.236 2.7-.453 4.428-.453zm4.154 22.72c.073.61.146 1.226.19 1.844l-.334 3.76c-.096.305-.214.608-.356.912-.158-.28-.312-.59-.45-.93-.128-.308-.403-.802-.784-1.486-1.483-2.663-4.956-8.9-3.178-11.444.53-.757 1.873-1.536 5.246-1.117-.015.847-.13 1.615-.254 2.417-.133.862-.27 1.754-.305 2.837-.034 1.052.098 2.148.225 3.207zM25.542 49.88c-.726.873-1.43 1.316-2.088 1.316-2.047 0-4.496-4.017-6.72-11.02-1.918-6.044-3.085-12.495-3.174-14.258-.223-4.467.666-7.786 2.642-9.867 1.716-1.806 4.288-2.722 7.643-2.722 3.228 0 6.416.86 8.19 1.438l-.024.023c-4.874 4.93-4.758 13.352-4.746 13.867 0 .2.016.48.04.867.082 1.417.24 4.053-.178 7.04-.388 2.774.466 5.49 2.343 7.45.213.225.438.433.67.627-.924 1.005-2.747 3.01-4.598 5.24zm5.16-7.047c-1.512-1.58-2.2-3.778-1.884-6.03.44-3.155.278-5.902.19-7.378-.012-.207-.023-.388-.03-.53.713-.633 4.013-2.404 6.367-1.864 1.074.248 1.728.98 2 2.24 1.408 6.52.187 9.24-.795 11.423-.203.45-.394.875-.557 1.316l-.126.34c-.32.858-.618 1.658-.803 2.418-1.608-.004-3.172-.692-4.362-1.935zm7.876 6.353c-1.3 1.822-3.088 2.746-5.316 2.746-.733 0-1.51-.103-2.313-.303-.413-.105-.79-.274-1.042-.43.214-.095.572-.217 1.164-.34 3.09-.637 3.568-1.086 4.61-2.41.24-.306.51-.65.885-1.07.08-.09.14-.195.176-.308.194-.17.37-.256.527-.256.15 0 .32.065.527.15.375.156.74.628.89 1.146.07.246.15.712-.11 1.074zm15.594.107c.012.193.068.49.28.79-.122.153-.224.33-.308.53-.24.586-.314 1.357-.416 2.425-.04.427-.086.907-.148 1.438l-.352 1.058c-.027.083-.043.17-.043.26-.015 1.145-.13 1.564-.277 2.097-.152.554-.326 1.18-.432 2.55-.266 3.413-2.115 5.372-5.822 6.167-.535.115-1.03.174-1.475.174-2.202 0-2.817-1.35-3.396-3.118-.062-.194-.123-.377-.186-.547-.52-1.414-.46-3.406-.38-6.164.046-1.51-.083-5.36-1.076-6.944l.007-.028c.01-.045.017-.09.02-.135.325-.642.383-1.407.157-2.198-.295-1.033-1.015-1.896-1.878-2.255-.272-.112-.68-.282-1.182-.282-.185 0-.367.023-.546.07.16-.666.438-1.415.742-2.23l.127-.342c.144-.386.324-.786.514-1.21 1.027-2.285 2.434-5.415.907-12.486-.57-2.65-2.48-3.942-5.376-3.642-1.736.18-3.324.88-4.116 1.283-.17.088-.327.172-.474.253.22-2.665 1.05-7.645 4.178-10.808.235-.238.48-.46.735-.67.125-.025.244-.076.35-.155 1.756-1.334 3.943-2.01 6.502-2.01.08 0 .162 0 .245.002.984.016 1.93.082 2.828.196 4.67.855 7.812 3.49 9.72 5.747 1.962 2.32 3.024 4.66 3.448 5.92-3.186-.325-5.354.306-6.453 1.88-2.392 3.42 1.308 10.064 3.085 13.256.326.586.607 1.092.696 1.307.58 1.405 1.328 2.343 1.876 3.027.167.21.33.414.453.592-.97.278-2.72.928-2.535 4.207zm8.734-.678c-.988.46-2.64.803-4.21.877-1.733.08-2.614-.195-2.822-.364-.098-2.006.647-2.216 1.437-2.438.11-.03.214-.06.316-.095.58.516 1.667 1.02 3.694 1.02 1.102 0 2.408-.152 3.882-.45-.485.427-1.25.964-2.296 1.45z"/></svg>