<svg xmlns="http://www.w3.org/2000/svg" width="80" height="80" viewBox="0 0 80 80"><path fill="#FFF" d="M32.183 39.124H47.35c4.223 0 7.593-3.5 7.593-7.77V16.798c0-4.143-3.47-7.255-7.592-7.947-2.608-.438-5.315-.636-7.91-.624-2.597.012-5.076.235-7.257.624-6.426 1.143-7.593 3.535-7.593 7.947v5.827h15.186v1.942H18.89c-4.412 0-8.277 2.67-9.486 7.75-1.394 5.824-1.456 9.458 0 15.538 1.08 4.527 3.658 7.752 8.07 7.752h5.223v-6.984c0-5.048 4.336-9.498 9.486-9.498zm-.956-20.385c-1.575 0-2.85-1.3-2.85-2.905 0-1.61 1.275-2.922 2.85-2.922 1.57 0 2.85 1.31 2.85 2.922 0 1.606-1.28 2.904-2.85 2.904zm17.08 49.088c1.883 0 3.416-1.566 3.416-3.492 0-1.916-1.533-3.475-3.416-3.475s-3.416 1.56-3.416 3.476c0 1.926 1.534 3.492 3.417 3.492zm0-5.826c1.26 0 2.283 1.047 2.283 2.334 0 1.297-1.023 2.352-2.283 2.352s-2.283-1.055-2.283-2.352c0-1.287 1.024-2.334 2.283-2.334zM70.68 32.18c-1.357-5.507-4.022-8.184-8.143-8.184H56.27v7.36c0 4.858-4.167 9.122-8.92 9.122H32.184c-4.423 0-8.16 3.82-8.16 8.34v14.556c0 3.836 2.842 6.79 8 8.316 2.703.8 5.22 1.188 7.697 1.188 2.504 0 5.052-.39 7.79-1.188 5.234-1.526 8-4.402 8-8.317v-6.396H40.34v-.8h22.196c5.028 0 6.715-3.853 8.13-8.142 1.578-4.765 1.582-9.507.014-15.855zm-1.088 15.494c-1.574 4.774-3.166 7.36-7.055 7.36H39.21v3.083h15.166v5.256c0 3.402-2.417 5.832-7.184 7.222-2.633.77-5.078 1.144-7.474 1.144-2.4 0-4.744-.364-7.376-1.144-2.684-.795-7.186-2.79-7.186-7.223V48.816c0-3.902 3.217-7.198 7.026-7.198H47.35c5.45 0 10.053-4.7 10.053-10.263v-6.22h5.133c3.574 0 5.812 2.327 7.043 7.32 1.533 6.205 1.536 10.613.012 15.22z"/></svg>