<svg xmlns="http://www.w3.org/2000/svg" width="80" height="80" viewBox="0 0 80 80"><path fill="#FFF" d="M66.607 33.78H47.33c-.968 0-1.753-.794-1.753-1.77V11.72c0-1.5-1.207-2.72-2.694-2.72h-6.88c-1.49 0-2.695 1.22-2.695 2.72v20.167c0 1.046-.837 1.896-1.874 1.9l-6.317.03c-1.045.006-1.894-.85-1.892-1.904l.04-20.188C23.266 10.22 22.06 9 20.57 9h-6.876C12.206 9 11 10.22 11 11.72v56.81c0 1.336 1.07 2.417 2.392 2.417h53.216c1.322 0 2.393-1.08 2.393-2.416V36.196c0-1.335-1.07-2.416-2.393-2.416zm-9.04 21.33c0 1.748-1.404 3.166-3.137 3.166h-5.438c-1.732 0-3.137-1.418-3.137-3.167v-5.493c0-1.75 1.404-3.168 3.137-3.168h5.438c1.732 0 3.137 1.418 3.137 3.167v5.492z"/></svg>