<svg xmlns="http://www.w3.org/2000/svg" width="80" height="80" viewBox="0 0 80 80"><path fill="#FFF" d="M10.587 34.758c3.392 1.625 22.22 9.252 25.196 10.678 2.976 1.426 5.068 1.445 8.834-.523 3.767-1.97 21.46-9.264 24.875-11.05 1.738-.908 2.507-1.61 2.506-2.25L72 25.216c-.002 0-.004 0-.007-.002.03-.65-.828-1.224-2.542-1.854-3.327-1.222-20.914-8.24-24.282-9.478-3.367-1.237-4.74-1.186-8.697.238-3.957 1.424-22.682 8.79-26.013 10.098-1.667.654-2.482 1.262-2.456 1.91v6.486c0 .646.892 1.33 2.587 2.144zm30.68.9L30.92 31.356l14.83-2.282-4.482 6.586zm22.45-10.233l-8.77 3.474-.95.373-8.767-3.475 9.71-3.85 8.777 3.477zM37.97 19.053L36.534 16.4l4.474 1.755 4.217-1.384-1.14 2.743 4.3 1.614-5.546.577L41.6 24.7l-2.005-3.342-6.403-.577 4.777-1.727zm-11.05 3.74c4.376 0 7.925 1.38 7.925 3.08 0 1.702-3.55 3.082-7.926 3.082-4.38 0-7.928-1.38-7.928-3.08 0-1.703 3.55-3.082 7.927-3.082zM69.49 38.345c-3.416 1.785-21.108 9.078-24.875 11.048-3.768 1.97-5.86 1.95-8.835.523-2.976-1.425-21.804-9.053-25.196-10.677-1.694-.813-2.56-1.5-2.586-2.145v6.487c0 .648.89 1.332 2.586 2.145 3.392 1.626 22.22 9.252 25.196 10.678 2.976 1.426 5.067 1.445 8.835-.523 3.767-1.97 21.46-9.264 24.875-11.05 1.738-.907 2.506-1.61 2.506-2.25L72 36.184c-.002 0-.005 0-.008-.002-.027.613-.843 1.296-2.5 2.162zm0 10.577C66.076 50.706 48.384 58 44.617 59.97c-3.768 1.97-5.86 1.95-8.835.523-2.976-1.425-21.804-9.052-25.196-10.677-1.694-.812-2.56-1.498-2.586-2.144v6.486c0 .648.89 1.334 2.586 2.146 3.392 1.626 22.22 9.25 25.196 10.678s5.067 1.446 8.835-.524c3.767-1.97 21.46-9.263 24.875-11.047 1.738-.907 2.506-1.61 2.506-2.253L72 46.762l-.008-.002c-.027.613-.843 1.296-2.5 2.162z"/></svg>