<svg xmlns="http://www.w3.org/2000/svg" width="80" height="80" viewBox="0 0 80 80"><g fill="#FFF"><path d="M28.87 35.84c-.61.407-1.1 1.002-1.47 1.786v-1.988H24V51.43h3.938v-6.387l-.015-.77c0-2.207.208-3.688.625-4.44.426-.756.944-1.133 1.555-1.133.3 0 .683.116 1.148.348l1.237-3.41c-.562-.272-1.1-.408-1.614-.408-.726 0-1.394.204-2.004.61zM33.97 35.637h3.982V51.43H33.97zM35.96 29.134c-.697 0-1.292.247-1.787.74s-.742 1.09-.742 1.785c0 .725.25 1.344.743 1.857.504.503 1.11.755 1.816.755.687 0 1.278-.247 1.772-.74.494-.503.74-1.108.74-1.814 0-.716-.25-1.326-.754-1.83-.494-.502-1.09-.754-1.787-.754zM53.24 37.38c-.706-.717-1.477-1.254-2.31-1.612-.833-.358-1.726-.537-2.675-.537-2.064 0-3.817.78-5.262 2.338-1.442 1.558-2.165 3.557-2.165 5.995 0 2.352.747 4.32 2.238 5.908 1.493 1.577 3.26 2.366 5.305 2.366.912 0 1.756-.16 2.53-.48.785-.33 1.564-.86 2.34-1.597v1.67h3.953V35.636H53.24v1.742zm-1.045 9.536c-.824.86-1.86 1.29-3.11 1.29-1.21 0-2.233-.44-3.067-1.32-.823-.88-1.234-2.003-1.234-3.366 0-1.355.406-2.464 1.22-3.325.814-.87 1.837-1.306 3.067-1.306 1.26 0 2.302.425 3.126 1.276.822.852 1.234 1.965 1.234 3.338 0 1.403-.412 2.54-1.235 3.412zM69.27 43.214l6.803-7.577h-4.97l-5.843 6.517V29.54h-3.967v21.89h3.967v-7.272l6.715 7.272h4.927"/><circle cx="11.708" cy="35.817" r="1.179"/><circle cx="16.999" cy="38.05" r="1.179"/><path d="M19.204 42.155c-.22 0-.413.076-.59.18-.9-.544-2.39-1.375-4.558-2.342-2.55-1.14-5.1-1.777-6.51-2.076-.053-.6-.543-1.078-1.16-1.078-.652 0-1.18.527-1.18 1.178 0 .65.527 1.18 1.18 1.18.244 0 .458-.092.646-.22.75.592 1.912 1.797 2.973 4.122 1.208 2.647 1.48 5.17 1.523 6.577-.563.09-1 .557-1 1.144 0 .652.528 1.18 1.18 1.18.65 0 1.18-.527 1.18-1.18 0-.415-.228-.764-.555-.974-.025-1.438-.274-4.16-1.606-7.076-.597-1.31-1.228-2.29-1.815-3.022.942.533 2.058 1.25 3.222 2.176 2.205 1.756 3.554 4.307 4.19 5.754-.3.214-.506.546-.506.94 0 .65.53 1.18 1.18 1.18.653 0 1.182-.528 1.182-1.18 0-.614-.477-1.104-1.08-1.158-.642-1.5-2.055-4.232-4.47-6.157-1.057-.842-2.07-1.514-2.958-2.037 1.222.346 2.65.822 4.06 1.452 2.042.91 3.48 1.705 4.368 2.237-.042.12-.077.245-.077.38 0 .65.53 1.18 1.18 1.18.653 0 1.182-.53 1.182-1.18 0-.65-.53-1.18-1.18-1.18z"/><circle cx="6.386" cy="48.65" r="1.18"/><circle cx="4.181" cy="43.334" r="1.179"/></g></svg>