<svg xmlns="http://www.w3.org/2000/svg" width="80" height="80" viewBox="0 0 80 80"><path fill="#FFF" d="M50.043 27.343c.41 0 .695.168.903.528.485.848.406 2.517.003 4.264h-3.272v.726h3.088c-.332 1.192-.797 2.37-1.32 3.306l-.17.302 4.094 2.61-2.305 1.537.395.606 2.576-1.72 2.78 1.838.382-.613-2.578-1.616s3.854-2.537 4.045-2.66l-.002-.005h.004c-.85-1.27-1.12-2.352-.765-3.584h.29l3.107-.002.006-.723h-3.132c.577-1.375 1.385-2.613 4.268-2.613v-.726c-2.66 0-4.252 1.07-5.015 3.34h-5.74c.4-1.815.47-3.598-.122-4.63-.333-.58-.86-.888-1.52-.888-2.372 0-3.308 2.454-3.347 2.56l.67.254c.034-.09.808-2.09 2.675-2.09zm3.982 11.295l-3.027-1.93h5.916l-2.89 1.93zm3.147-5.78c-.254.823-.152 2.06.474 3.123h-7.294c.444-.9.855-1.997 1.156-3.12h5.664zm-9.803-3.427zm23.65 30.757c-1.214-1.376-3.594-2.028-5.58-1.98-1.267-1.525-7.98-8.706-9.345-10.16 2.806-1.995 5.242-4.585 7.11-7.662h3.708v-.806h-3.24c.208-.37.404-.748.596-1.13h2.644v-.807h-2.26c1.68-3.672 2.607-7.887 2.518-12.5l.01.005c-.006-1.262-.393-6.597-1.106-8.066-1.935.745-5.454 3.157-6.25 5.623-3.818-.577-8.122-.51-11.892.152-.63-2.654-3.79-4.685-6.176-5.83-1.006 1.72-1.452 5.707-1.34 8.534-.003.004-.008.007-.012.01.095 2.555.438 4.9.99 7.057-8.25 2.07-17.228 7.542-22.25 12.83-2.352-3.213-3.285-5.85-3.562-7.85-.35-2.523.245-4.84 1.72-6.695 2.31-2.906 5.59-3.11 8.965-2.536-.067.54.003 1.056.217 1.375.892 1.336 5.688 1.805 8.55.51-2.11-2.998-6.39-4.46-7.577-3.875-.393.194-.69.55-.892.967-1.166-.21-2.324-.368-3.17-.362-2.977.022-5.252 1.075-6.956 3.22-1.67 2.103-2.347 4.715-1.954 7.554.373 2.688 1.687 5.547 3.89 8.513-.366.397-.72.79-1.06 1.176-5.37 6.084-9.293 12.608-9.293 13.69v.56h7.083l-.124-.664c-.4-2.143.4-4.818 2.035-6.818 1.026-1.256 2.727-2.688 5.398-3.35 2.375 2.348 5.4 4.84 8.77 7.246h5.262v-.56c0-.632-.31-1.187-.87-1.558-.833-.55-2.116-.627-3.295-.22-1.124-1.268-1.754-2.962-1.89-5.065 11.422 1.025 22.348 5.697 34.676 12.22h6.784l.09-.45c.126-.642-.22-1.5-.923-2.298zM42.194 18.583c.56 3.1 1.58 5.045 3.783 6 1.952-.566 4.203-.92 6.514-1.05l1.918 4.262 1.23-4.298c2.336.077 4.623.387 6.617.944 2.03-1.493 2.816-3.775 3.246-5.77.537 2.32.476 7.333.478 7.333.037 1.872-.11 3.67-.424 5.385l-2.19.943 1.93.297c-.153.657-.328 1.3-.53 1.93l-1.866.55 1.487.54c-.254.683-.534 1.35-.842 1.994h-3.078v.808h2.673c-.202.384-.414.76-.634 1.13h-2.04v.806h1.538c-2.023 3.104-4.703 5.622-7.77 7.397-3.545-1.788-6.227-4.4-8.19-7.396h1.175v-.806h-1.68c-.225-.372-.437-.75-.64-1.13h2.32v-.807h-2.73c-.47-.964-.878-1.952-1.23-2.952l1.393-.395-1.754-.71c-.178-.58-.337-1.16-.478-1.743l2.7-.187-3.088-1.66c-.757-4.223-.604-8.324.163-11.41zM16.167 53.506c-1.675 2.048-2.563 4.753-2.36 7.076H9.345c.896-1.965 4.467-7.646 9.744-13.383.726.91 1.536 1.828 2.426 2.755-2.59.79-4.29 2.256-5.35 3.55zm49.176 8.307C52.9 55.238 41.973 50.6 30.368 49.588c.025-1.636.313-3.487.865-5.55l-1.067-.294c-.567 2.12-.866 4.042-.9 5.76-1.208-.082-2.426-.124-3.653-.124-1.042 0-1.99.098-2.855.268-1.128-1.142-2.09-2.23-2.906-3.263 1.453-1.533 3.162-3.024 5.032-4.425l2.59 1.812-.846-3.06c.788-.537 1.597-1.057 2.422-1.556l3.838 1.975-1.802-3.145c.525-.288 1.055-.566 1.587-.834l5.362 3.644-1.76-5.284c1.83-.747 3.654-1.358 5.42-1.8.414 1.394.922 2.702 1.508 3.933h-2.436v.807h2.837c.2.384.406.762.622 1.13h-3.46v.805h3.952c2.424 3.81 5.697 6.727 9.404 8.935.412-.24.816-.492 1.216-.755l.972 1.06-1.633 2.543 2.783-1.288 1.612 1.757-2.725 2.104 3.752-.982 5.06 5.518.428-.037c2.683-.234 4.206 1.24 4.61 1.696.296.335.475.642.572.88h-5.427z"/></svg>