<svg xmlns="http://www.w3.org/2000/svg" width="80" height="80" viewBox="0 0 80 80"><path fill="#FFF" d="M61.51 36.272c.15-.875.244-1.77.244-2.688C61.754 24.977 54.86 18 46.352 18c-6.07 0-11.305 3.563-13.813 8.728-1.62-.747-3.414-1.174-5.31-1.174-7.082 0-12.823 5.81-12.823 12.976 0 1.234.18 2.423.5 3.554C10.894 43.438 8 47.262 8 51.777c0 1.504.33 2.93.907 4.217l17.727-17.94-2.98-2.904 11.14-1.73-1.737 10.898-2.83-2.76-18.175 18.39C13.74 61.23 15.83 62 18.104 62h3.217l27.65-27.98-2.978-2.906 11.14-1.73-1.737 10.9-2.832-2.762L28.373 62h11.625l13.69-13.854-2.98-2.903 11.14-1.73-1.737 10.897-2.83-2.76L47.05 62h12.126C66.26 62 72 56.19 72 49.024c0-6.36-4.524-11.64-10.49-12.752z"/></svg>