<svg xmlns="http://www.w3.org/2000/svg" width="80" height="80" viewBox="0 0 80 80"><path fill="#FFF" d="M39.94 8C22.3 8 8 22.3 8 39.94s14.3 31.94 31.94 31.94 31.938-14.3 31.938-31.94S57.578 8 39.938 8zm7.167 11c1.177-2.04 3.783-2.738 5.823-1.56 2.04 1.177 2.737 3.784 1.56 5.823-1.177 2.04-3.783 2.737-5.823 1.56-2.04-1.177-2.737-3.785-1.56-5.823zM18.22 44.204c-2.355 0-4.264-1.91-4.264-4.264 0-2.356 1.91-4.265 4.265-4.265 2.356 0 4.265 1.91 4.265 4.265 0 2.355-1.91 4.264-4.264 4.264zm3.78.38c1.348-1.098 2.21-2.77 2.21-4.644s-.862-3.546-2.21-4.644c1.154-4.464 3.93-8.276 7.662-10.77l3.118 5.223c-3.203 2.253-5.297 5.975-5.297 10.19 0 4.214 2.094 7.937 5.297 10.19l-3.118 5.222c-3.73-2.493-6.508-6.304-7.66-10.768zM52.933 62.44c-2.04 1.178-4.646.48-5.824-1.56s-.48-4.647 1.56-5.824c2.04-1.178 4.647-.48 5.824 1.56s.478 4.648-1.56 5.824zm-.014-9.292c-1.62-.612-3.494-.52-5.112.415-1.62.937-2.638 2.515-2.917 4.228-1.577.437-3.235.675-4.95.675-2.95 0-5.735-.692-8.21-1.918l2.963-5.31c1.595.742 3.372 1.16 5.248 1.16 6.508 0 11.846-4.99 12.406-11.353l6.077.088c-.3 4.698-2.352 8.917-5.505 12.016zm-.573-14.313c-.56-6.362-5.897-11.352-12.405-11.352-1.875 0-3.652.417-5.247 1.16l-2.962-5.31c2.476-1.226 5.262-1.918 8.21-1.918 1.714 0 3.373.238 4.95.674.278 1.712 1.295 3.29 2.915 4.226 1.62.935 3.492 1.028 5.113.415 3.153 3.1 5.205 7.32 5.504 12.017l-6.077.088z"/></svg>