<svg xmlns="http://www.w3.org/2000/svg" width="80" height="80" viewBox="0 0 80 80"><path fill="#FFF" d="M42.998 57.336c1.78-.436 3.51-2.49 3.244-6.118l-.046-.625.02.03c-.444-1.63-1.303-3.822-2.562-6.543-.583.28-1.198.508-1.837.674.35 2.514.145 5.82-.49 8.072.047.096.095.19.144.287.676 1.338 1.374 2.72 1.528 4.223zm6.67-19.344l-.693-.294c-.317 1.182-.85 2.278-1.555 3.244l.008-.006c1.314 1.527 4.025 3.027 6.248 3.95.556.177 1.13.35 1.682.515.918.276 1.865.56 2.778.885.17-2.012-.828-4.2-2.48-5.383l-.524-.376.02.002c-1.688-.928-3.683-1.774-5.484-2.536zm9.133.427c-.444-.644-1.25-1.464-2.048-2.09l-.295-.233c-2.292-1.27-4.91-2.205-7.27-2.515.08.51.124 1.034.124 1.568 0 .764-.087 1.508-.253 2.222.242.103.488.208.743.315 2.062.874 4.378 1.855 6.21 2.952 1.08.19 2.31.83 3.178 1.65.828-.92-.004-3.32-.387-3.87zm4.494-11.846c-.804 1.238-1.994 2.158-3.313 2.897v2.337c1.204.798 2.183 1.913 2.237 3.945l.006.212-.21-.046c-.41-.09-.83-.134-1.28-.134-.253 0-.503.015-.752.038v10.93c0 2.956-.2 3.233-4.128 3.57-.062.122-.137.238-.22.35v1.06h7.662V26.574zm-3.314-3.29v1.505c1.165.096 2.293.377 3.312.828v-7.314h-7.66v.016l.166.057-.167.154v1.164c4.143.348 4.35.58 4.35 3.59zm-19.414 2.02c2.18.278 4.14 1.25 5.652 2.685 2.777-1.096 5.244-3.692 6.72-5.834.328-.443.614-.987.917-1.562.393-.747.8-1.516 1.314-2.075-.597-.177-1.222-.266-1.862-.266-1.977 0-3.875.87-5.078 2.325-1.395 1.54-2.98 3.285-4.248 4.908l-.474.608-.265-.203.474-.607c1.33-1.706 2.833-3.63 4.3-5.224.27-1.167.88-2.93 2.22-4.08-.518-.485-1.133-.73-1.83-.73-1.552 0-3.305 1.246-4.353 2.48l-.288.34c-.848 1.235-2.08 3.39-3.2 7.232zm14.123.16c.345-2.063 1.534-2.35 2.663-2.35.397 0 .805.037 1.236.077l.122.012c-.617-1.444-1.987-1.668-2.775-1.668-.814 0-1.688.234-2.412.637-1.445 2.215-4.13 4.875-7.05 6.074 1.364 1.39 2.32 3.172 2.68 5.156l.02-.155c2.535.324 5.457 1.348 7.875 2.75.307-.055.613-.115.912-.174.658-.13 1.334-.266 2.018-.33.25-.022.5-.037.752-.037.398 0 .773.033 1.14.1-.103-1.652-.895-2.63-1.892-3.34-.303-.217-.624-.408-.95-.586-.322-.082-.63-.187-.927-.288-.48-.164-.935-.318-1.44-.385l-.638-.083.062-.025c-2.693-.052-5.653.47-7.312.82l-.07-.324c1.83-.386 5.23-.98 8.148-.797 1.047-.417 2.13-.882 3.127-1.458 1.36-.785 2.558-1.773 3.285-3.12-1.007-.46-2.126-.747-3.285-.846-.3-.026-.604-.04-.908-.04-1.416 0-2.865.28-4.19.81l-.265.104c-2.488 1.042-4.727 2.492-6.368 4.39l-.256-.214c1.715-1.984 4.088-3.65 6.695-4.708zm-.122 25.448l.03.24c.755-.455 1.163-1.104 1.214-1.93.065-1.092-.61-2.75-1.992-3.832-2.293-.906-5.17-2.564-6.6-4.186-.52.664-1.12 1.262-1.79 1.778 1.9 1.133 4.247 3.17 5.646 4.89l.102.003c.918.035 1.958.074 2.633.794.557.596.664 1.47.758 2.242zm20.97-32.607h-7.663v1.39c4.14.347 4.35.58 4.35 3.59v23.468c0 3.01-.208 3.243-4.35 3.59v1.39h7.662V18.305zM48.975 35.15c0-2.642-1.084-5.036-2.835-6.772h.002l-.02-.02c-1.757-1.732-4.18-2.804-6.848-2.804-5.14 0-9.356 3.972-9.68 8.974l-.01.135c-.008.16-.012.323-.012.486 0 5.29 4.352 9.595 9.702 9.595s9.702-4.305 9.702-9.596zm-23.71 18.056c.51.6 1.172.913 1.93.913 1.246 0 2.63-.847 3.418-2.056.614-2.63 2.204-6.195 4.02-8.114-.64-.332-1.24-.73-1.79-1.185-.98 2.482-2.92 5.564-4.702 7.494.153.513.107.988-.14 1.415-.482.838-1.682 1.33-2.735 1.53zm11.58 3.482c.913 0 1.92-.373 2.345-.87.797-.93 1.378-2.24 1.725-3.18l.135-.363.05.1c.546-2.184.71-5.204.39-7.542-.713.16-1.454.244-2.214.244-.33 0-.658-.016-.98-.047-.44 2.38-1.427 5.644-1.945 7.286.29 1.343.11 2.835-.506 4.16.255.14.6.212 1.003.212zm2.428-31.466c.32 0 .64.016.954.045.593-2.043 1.782-5.538 3.524-7.862-.012-.372-.035-.75-.06-1.118-.08-1.238-.16-2.517.2-3.734-.14-.012-.277-.018-.412-.018-.84 0-3.663.33-4.757 4.59-.48 2.48-.43 6.156-.213 8.125.252-.018.507-.028.764-.028zm-15.387.395l-.522-.125c-1.41-.33-2.864-.673-4.116-1.478-.468 1.03-.39 2.268.226 3.506.576 1.16 1.557 2.31 2.667 2.95 1.544.77 4.01 1.594 7.347 2.46.133-.573.315-1.127.544-1.658-2.08-1.235-4.717-3.667-6.147-5.655zM18.422 39.9c-.494-.138-.963-.378-1.324-.69-.096.626.13 1.137.353 1.47.238.355.58.67.973.91.425.265.908.444 1.382.497l.336.04-.01.01c2.322-.142 5.056-1.015 7.52-1.802.94-.3 1.83-.583 2.62-.8-.285-.573-.517-1.176-.688-1.804-.875.13-1.903.337-2.99.558-1.792.362-3.776.763-5.435.875-.415.558-1.06.862-1.844.862-.294 0-.597-.044-.89-.126zm0-1.912c.713.42 1.52.714 2.38.714.114 0 .23-.005.343-.016l.317-.03c1.587-.13 3.367-.35 5.06-.692 1.08-.218 2.1-.424 2.977-.555-.172-.728-.264-1.484-.264-2.26 0-.11.002-.22.006-.33-2.276 1.003-5 1.27-7.16 1.27-1.794 0-3.196-.183-3.63-.278h-.03c-.213-.006-.383-.04-.524-.086-.03.002-.062.004-.096.004-.323 0-.765-.103-1.193-.202-.365-.084-.74-.17-1.005-.185.373.51 1.414 1.82 2.817 2.645zm0 5.09c-.188.057-.368.117-.538.2.145.302.326.58.538.835.893 1.067 2.35 1.68 4.1 1.68.7 0 1.41-.105 2.052-.307l.003.006c2.28-.99 5.313-2.62 7.04-3.933-.455-.53-.855-1.108-1.19-1.725-.8.218-1.71.508-2.673.814-2.615.835-5.528 1.763-7.97 1.83-.352.298-.774.423-1.185.544-.06.02-.12.037-.178.054zm-1.066-7.73c-.746-.398-1.547-.935-2.248-1.535v1.285l.143-.05c.287-.1.84.02 1.435.157.23.052.46.106.67.144zM52.73 56.18c.347-1.268.697-4.29-2.102-8.056l-.212-.284c-1.415-1.668-3.448-3.57-5.25-4.626l.032-.055c-.395.286-.812.545-1.247.772 1.508 3.25 2.447 5.76 2.8 7.476 1.277 1.813 3.293 3.99 5.98 4.77zm-16.663-4.104l.007-.002c.525-1.67 1.46-4.787 1.885-7.08-1.066-.14-2.08-.443-3.013-.887-1.704 1.756-3.26 5.146-3.922 7.695l.103.032-.023.168c-.19 1.39-.385 2.824-.698 4.22 2.497-.08 4.713-1.74 5.555-4.183l.105.037zm3.28 10.057l-3.896 8.716h2.722l.73-1.768h3.827l.718 1.768h2.72l-3.884-8.715h-2.937zm.178 5.432l1.303-3.183 1.29 3.182h-2.593zm-7.913 3.284h2.65V62.13h-2.65v8.716zM21.096 52.7c2.8 0 5.188-1.496 6.697-2.75l.177-.147.042.104c1.732-1.924 3.646-4.998 4.562-7.37-.258-.23-.504-.472-.737-.726-1.745 1.332-4.825 2.987-7.135 3.99-1.745 1.562-2.805 3.077-3.443 4.4-.264.547-.455 1.06-.593 1.532-.096.328-.167.636-.217.92.08.02.23.025.31.027.095 0 .193.005.278.02h.058zm8.12 11.377c-.226-.33-.49-.618-.79-.86-.174-.148-.37-.286-.59-.414-.22-.13-.488-.244-.8-.348-.314-.102-.667-.182-1.058-.238-.392-.058-.863-.086-1.413-.086h-3.658v8.716h4.75c1.135 0 2.017-.245 2.648-.734.445-.336.832-.773 1.16-1.314.33-.54.493-1.256.493-2.148 0-.512-.066-.984-.2-1.42-.134-.438-.314-.822-.54-1.153zm-2.723 4.476c-.508.326-1.11.49-1.804.49h-1.132v-5.158h1.13c.4 0 .79.066 1.173.2.384.134.712.4.986.795.273.396.41.948.41 1.655 0 1.02-.255 1.692-.763 2.018zm50.806-6.48v8.716h2.65v-8.716H77.3zm-21.187 4.83l-2.06-4.83h-1.9l-2.098 4.83-1.83-4.83h-2.753l3.738 8.83h1.55l2.347-5.137 2.287 5.137h1.54l3.812-8.83h-2.72l-1.913 4.83zm19.483-4.83H72.71l-3.19 3.9v-3.9h-2.652v8.716h2.652v-4.083l3.368 4.082h3.24l-3.81-4.636 3.278-4.08zm-42.39-44.18c.702 2.41 2.013 5.59 3.76 7.595.395-.093.8-.162 1.21-.206-.224-2.035-.355-5.867.168-8.382-.66-2.827-2.06-5.305-3.88-6.853-1.44 2.026-1.918 4.79-1.31 7.614l.05.233zM61.98 70.79h2.65v-8.716h-2.65v8.715zM30.172 30.967c.406-.86.934-1.656 1.56-2.362-.06-.17-.12-.352-.185-.543-.554-1.636-1.313-3.876-2.503-4.857-.347-.285-.735-.58-1.146-.892-.767-.582-1.608-1.11-2.286-1.785l-.278-.177c-.297-.19-.44-.503-.577-.806-.08-.177-.157-.345-.258-.47-.684.397-1.126.975-1.317 1.717-.396 1.537.435 3.77 1.21 4.947 1.438 1.88 3.848 4.072 5.78 5.228zm-.914-8.018c1.264 1.04 2.04 3.333 2.607 5.006l.126.37c.772-.805 1.677-1.483 2.68-1.998-.67-2.367-2.94-5.004-4.88-6.736l-.322-.257c-1.036-.826-2.104-1.68-3.14-2.514-.51 1.108-.753 2.122-.745 3.086.685.75 1.616 1.458 2.52 2.143.413.314.803.61 1.155.9zm-10.836.372c0-3.01.166-3.28 4.348-3.628v-1.39h-7.662v12.99c1.097-.434 2.197-.728 3.313-.885V23.32zm16.554 2.858c.52-.245 1.063-.446 1.627-.6-1.767-2.093-3.202-5.353-3.886-7.766-.53-.122-.926-.38-1.18-.775-.438-.675-.452-1.72-.04-3.192-.838.173-1.464.643-1.822 1.37-.523 1.06-.433 2.605.2 3.863 2.015 1.738 4.365 4.592 5.1 7.1zM15.11 33.372c.923.837 2.082 1.57 3.04 1.994l.256.112h.017l.05.002.04.004c.902.205 6.635.86 10.75-1.036.03-.406.082-.805.16-1.195-3.545-.918-6.04-1.764-7.61-2.58-.488-.046-.972-.07-1.44-.07-.658 0-1.307.046-1.95.138-1.116.162-2.215.464-3.313.91-.367.15-.733.314-1.1.496.284.418.666.833 1.1 1.226zm.026 33.86h3.7v-1.754h-3.7v-1.594h3.877V62.13h-6.53v8.715h6.638v-1.752h-3.985v-1.86zm-12.2-15.5H10.6v-1.39c-4.267-.347-4.35-.58-4.35-3.552V23.322c0-3.01.166-3.28 4.35-3.628v-1.39H2.936v33.428zM5.124 65.4l-2.71-3.27H.007v8.715h2.58v-5.05l2.404 2.923h.21l2.397-2.924v5.05h2.652V62.13H7.844L5.123 65.4zm13.3-18.61v-2.18c-.384-.384-.69-.833-.91-1.34l-.058-.136.127-.073c.267-.154.556-.246.84-.33l.08-.023c.232-.067.456-.133.662-.23-.187-.005-.372-.017-.552-.036l.036-.328.057.005c-.096-.043-.19-.09-.284-.14-.506-.28-.953-.67-1.25-1.113-.423-.632-.538-1.333-.332-2.025l.084-.285.2.22c.32.35.79.625 1.3.78.29.09.595.14.89.14.42 0 .96-.1 1.38-.507-.128.004-.255.007-.378.007-.076 0-.15 0-.226-.003l.005-.22c-.596-.1-1.157-.316-1.672-.598-1.952-1.07-3.248-3.065-3.262-3.093l-.05-.093v16.545h5.21c.148-.527.345-1.053.59-1.574-2.427-.326-2.486-.91-2.486-3.367z"/></svg>