<svg xmlns="http://www.w3.org/2000/svg" width="80" height="80" viewBox="0 0 80 80"><path fill="#FFF" d="M12.53 39.875c0 10.824 6.29 20.178 15.413 24.61l-13.045-35.74c-1.517 3.402-2.367 7.166-2.367 11.13zm27.827 2.393l-8.206 23.84c2.45.72 5.043 1.113 7.727 1.113 3.186 0 6.238-.55 9.08-1.55-.072-.115-.14-.238-.193-.374l-8.407-23.028zM39.877 8C22.3 8 8 22.3 8 39.875c0 17.578 14.3 31.877 31.876 31.877s31.878-14.298 31.878-31.877C71.754 22.3 57.452 8 39.876 8zm-.002 62.29c-16.77 0-30.414-13.644-30.414-30.415 0-16.77 13.645-30.413 30.415-30.413s30.413 13.643 30.413 30.413S56.645 70.29 39.875 70.29zM63.87 26.756c.118.87.185 1.806.185 2.81 0 2.776-.52 5.896-2.08 9.796l-8.352 24.15c8.13-4.74 13.598-13.548 13.598-23.636 0-4.755-1.214-9.225-3.35-13.12zm-5.534 11.742v-.003c0-3.38-1.214-5.72-2.255-7.54-1.385-2.254-2.684-4.16-2.684-6.414 0-2.512 1.906-4.85 4.592-4.85.12 0 .236.014.354.02-4.866-4.457-11.347-7.178-18.466-7.178-9.553 0-17.958 4.902-22.847 12.326.64.02 1.244.033 1.757.033 2.86 0 7.288-.347 7.288-.347 1.474-.087 1.648 2.078.175 2.253 0 0-1.48.174-3.128.26l9.958 29.62 5.984-17.948-4.26-11.673c-1.473-.086-2.868-.26-2.868-.26-1.474-.087-1.3-2.34.173-2.253 0 0 4.514.348 7.2.348 2.86 0 7.29-.347 7.29-.347 1.474-.086 1.647 2.08.175 2.254 0 0-1.485.174-3.13.26l9.882 29.396 2.727-9.115c1.184-3.78 2.082-6.5 2.082-8.84z"/></svg>